<svg version="1" xmlns="http://www.w3.org/2000/svg" width="424" height="424" viewBox="0 0 318.000000 318.000000"><path d="M0 159v130.2l3.2-2c1.8-1.1 37.5-21.7 79.2-45.7 69.2-40 76.2-43.7 78.5-42.8 1.4.6 37.2 21.1 79.6 45.6l77 44.5.3-64.9c.1-35.7.1-94.1 0-129.8l-.3-64.9-77 44.5c-42.4 24.5-78.2 45-79.6 45.6-2.3.9-9.3-2.8-78.5-42.8C40.7 52.5 5 31.9 3.3 30.8l-3.3-2V159zm137.5-35.3c67.7 39 124 71.5 125.3 72.2l2.2 1.2V120.8l-4.2 2.4c-2.4 1.3-14.3 8.2-26.5 15.2l-22.2 12.8-6.6-3.6c-3.6-2.1-6.5-3.8-6.5-4 0-.2 14.8-8.8 33-19.2l32.9-18.9.1-7.3c0-3.9-.3-7.2-.6-7.2s-18.1 10.1-39.5 22.5l-39 22.6-6.6-3.7c-3.6-2-6.1-4-5.6-4.4.4-.5 30.1-17.7 65.8-38.4l65-37.5.3 53.5c.1 29.3.1 77.4 0 106.8l-.3 53.5-123-71c-67.6-39.1-124.2-71.7-125.7-72.5l-2.8-1.5V197.2l4.3-2.4c2.3-1.3 14.2-8.2 26.4-15.2l22.2-12.8 6.6 3.6c3.6 2.1 6.5 3.8 6.5 4 0 .2-14.8 8.8-33 19.2l-32.9 18.9-.1 7.2c0 4 .3 7.3.6 7.3s18.1-10.1 39.5-22.5l39-22.6 6.6 3.7c3.6 2 6.1 4 5.6 4.4-.4.5-28.2 16.7-61.8 36-33.5 19.4-62.9 36.4-65.2 37.7l-4.3 2.5V159c0-58.9.3-106.9.8-106.7.4.3 56.1 32.4 123.7 71.4zm-57.7 27.8c6.7 3.8 12.2 7.2 12.2 7.5 0 .4-22.6 13.7-25.2 14.8-.5.2-.8-6.5-.8-14.8s.3-15 .8-14.8c.4.1 6.2 3.4 13 7.3zm172.2 7.6c0 8.3-.3 14.9-.8 14.7-2.6-1.1-25.2-14.4-25.2-14.8 0-.5 24-14.7 25.3-14.9.4-.1.7 6.7.7 15z"/></svg>