<svg xmlns="http://www.w3.org/2000/svg" display="none">
    <symbol viewBox="0 0 24 24" id="icon-close">
        <polygon points="19.8,5.6 18.4,4.2 12,10.6 5.6,4.2 4.2,5.6 10.6,12 4.2,18.4 5.6,19.8 12,13.4 18.4,19.8 19.8,18.4 13.4,12 "/>
    </symbol>
    <symbol viewBox="0 0 24 24" id="icon-zoom-in">
        <path d="M20.9,18.8l-2.1-2.1c0,0-0.1-0.1-0.2-0.1c0.9-1.3,1.4-2.9,1.4-4.5c0-4.4-3.6-8-8-8s-8,3.6-8,8c0,4.4,3.6,8,8,8
            c1.9,0,3.7-0.7,5.1-1.8c0,0,0,0,0,0.1l2.1,2.1c0.2,0.2,0.5,0.3,0.8,0.3s0.6-0.1,0.8-0.3C21.3,19.9,21.3,19.2,20.9,18.8z M12,18
            c-3.3,0-6-2.7-6-6s2.7-6,6-6s6,2.7,6,6S15.3,18,12,18z"/>
        <polygon points="15,11 13,11 13,9 11,9 11,11 9,11 9,13 11,13 11,15 13,15 13,13 15,13 "/>
    </symbol>
    <symbol viewBox="0 0 24 24" id="icon-zoom-out">
        <path d="M20.9,18.8l-2.1-2.1c0,0-0.1-0.1-0.2-0.1c0.9-1.3,1.4-2.9,1.4-4.5c0-4.4-3.6-8-8-8s-8,3.6-8,8c0,4.4,3.6,8,8,8
            c1.9,0,3.7-0.7,5.1-1.8c0,0,0,0,0,0.1l2.1,2.1c0.2,0.2,0.5,0.3,0.8,0.3s0.6-0.1,0.8-0.3C21.3,19.9,21.3,19.2,20.9,18.8z M12,18
            c-3.3,0-6-2.7-6-6s2.7-6,6-6s6,2.7,6,6S15.3,18,12,18z"/>
        <rect x="11" y="9" transform="matrix(-1.836970e-16 1 -1 -1.836970e-16 24 1.776357e-15)" width="2" height="6"/>
    </symbol>
    <symbol viewBox="0 0 24 24" id="icon-reset-zoom">
        <path d="M4,15H2v2c0,1.6,1.3,3,3,3h3v-2H5c-0.6,0-1-0.5-1-1V15z M2,7v2h2V7.1C4,6.5,4.5,6,5.1,6H8V4H5C3.4,4,2,5.4,2,7z M20,15v2
            c0,0.6-0.4,1-1,1h-3v2h3.1c1.6,0,2.9-1.3,2.9-2.9V15H20z M16,4v2h2.9C19.5,6,20,6.5,20,7.1V9h2V7c0-1.6-1.3-3-3-3H16z"/>
        <polygon points="16,11 13,11 13,8 11,8 11,11 8,11 8,13 11,13 11,16 13,16 13,13 16,13 "/>
    </symbol>
    <symbol viewBox="0 0 24 24" id="icon-fullscreen">
        <path d="M14,4v2h4v4h2V4H14z M6,14H4v6h6v-2H6V14z"/>
        <rect x="15" y="4.5" transform="matrix(0.7071 0.7071 -0.7071 0.7071 10.3431 -8.9706)" width="2" height="7.1"/>
        <rect x="6.8" y="13.1" transform="matrix(0.7071 0.7071 -0.7071 0.7071 13.7604 -0.7206)" width="2" height="6.4"/>
    </symbol>
</svg>