<svg xmlns="http://www.w3.org/2000/svg" display="none">
    <symbol viewBox="0 0 647.8 476" id="logo-no-outline">
        <polygon points="88.3,153 88.3,323 206.1,255 235.6,272 88.3,357 88.3,391 265,289 294.5,306 0,476 0,0 559.4,323 559.4,153 
            441.7,221 412.2,204 559.4,119 559.4,85 382.8,187 353.3,170 647.8,0 647.8,476 "/>
    </symbol>
    <symbol viewBox="0 0 472.1 191.3" id="nxn-text">
        <path d="M0,191.3V43C0,28.5,10.1,17.3,30.3,9.6c10.9-4.2,23.2-6.3,37-6.3c13.7,0,26,2.1,37,6.3c20.2,7.8,30.3,18.9,30.3,33.4v133.7
            l-30.8,14.6h-1.6V48.6c0-5.4-3.4-9.5-10.1-12.2c-6.8-2.7-15-4.1-24.7-4.1c-9.7,0-18,1.4-24.7,4.1c-6.8,2.7-10.1,6.8-10.1,12.2
            v128.1L1.6,191.3H0z"/>
        <path d="M196.2,191.3h-1.6L166.7,178L217,95.6l-50.3-82.2L195,0h1.6L236,64.4L275.3,0h1.6l28.2,13.4l-50.2,82l50.4,82.6l-28.2,13.3
            h-1.6l-39.6-64.8L196.2,191.3z"/>
        <path d="M470.5,191.3l-30.8-14.6V48.6c0-5.4-3.4-9.5-10.1-12.2c-6.8-2.7-15-4.1-24.7-4.1s-18,1.4-24.7,4.1
            c-6.8,2.7-10.1,6.8-10.1,12.2v142.7h-1.6l-30.8-14.6V43c0-14.5,10.1-25.6,30.3-33.4c10.9-4.2,23.2-6.3,37-6.3c13.7,0,26,2.1,37,6.3
            c20.2,7.8,30.3,18.9,30.3,33.4v148.3H470.5z"/>
    </symbol>
    <symbol viewBox="0 0 706.7 578" id="icon-logo">
        <path d="M147.2,323l0-68l58.9,34L147.2,323z M29.4,527l0-476l559.5,323l0-170l-117.8,68l-29.4-17l147.2-85l0-34
            L412.2,238l-29.4-17L677.2,51l0,476L117.8,204l0,170l117.8-68l29.4,17l-147.2,85l0,34l176.7-102l29.4,17L29.4,527z M353.3,374
            l353.3,204l0-578L353.3,204L0,0l0,578L353.3,374z M559.5,255l0,68l-58.9-34L559.5,255z"/>
    </symbol>
    <symbol viewBox="0 0 24 24" id="icon-mail">
        <path d="M18.6,4H5.4C3.5,4,2,5.5,2,7.4v9.2C2,18.5,3.5,20,5.4,20h13.2c1.9,0,3.4-1.5,3.4-3.4V7.4C22,5.5,20.5,4,18.6,4z M5.4,6h13.2
            c0.5,0,0.9,0.2,1.2,0.6l-7.2,4.8c-0.3,0.2-0.8,0.2-1.1,0L4.2,6.6C4.5,6.2,4.9,6,5.4,6z M18.6,18H5.4C4.6,18,4,17.4,4,16.6V8.9
            l6.3,4.2c0.5,0.3,1.1,0.5,1.7,0.5s1.2-0.2,1.7-0.5L20,8.9v7.7C20,17.4,19.4,18,18.6,18z"/>
    </symbol>
    <symbol viewBox="0 0 24 24" id="icon-geo">
        <path d="M11.9,2.1c-4,0-8,3-8,8c0,6,8,12,8,12s8-6,8-12C19.9,5.2,15.9,2.1,11.9,2.1z M11.9,16.1c-3.3,0-6-2.7-6-6c0-3.3,2.7-6,6-6
            s6,2.7,6,6C17.9,13.4,15.2,16.1,11.9,16.1z"/>
        <circle cx="11.9" cy="10.1" r="2"/>
    </symbol>
    <symbol viewBox="0 0 24 24" id="icon-doc">
        <path d="M15.4,10.2c-2,0-3.6-1.6-3.6-3.6V2.1H7c-1.7,0-3.1,1.4-3.1,3.1V19c0,1.7,1.4,3.1,3.1,3.1h9.8c1.7,0,3.1-1.4,3.1-3.1v-8.8
            H15.4z M17.9,19c0,0.6-0.5,1.1-1.1,1.1H7c-0.6,0-1.1-0.5-1.1-1.1V5.2c0-0.6,0.5-1.1,1.1-1.1h2.8v2.5c0,3.1,2.5,5.6,5.6,5.6h2.5V19z"/>
        <path d="M15.2,8.4h4.5l-6.1-6.1v4.5C13.5,7.7,14.3,8.4,15.2,8.4z"/>
    </symbol>
    <symbol viewBox="0 0 24 24" id="icon-web">
        <path d="M12.8,17.8c-0.7,0-1.5-0.1-2.3-0.4l-0.1,0l-0.8,0.8c-0.5,0.5-1.2,0.8-2,0.8s-1.5-0.3-2-0.8c-0.5-0.5-0.8-1.2-0.8-2
            c0-0.8,0.3-1.5,0.8-2.1l2.8-2.8c0.4-0.4,0.9-0.6,1.5-0.7c0.7-0.1,1.3,0,1.9,0.3l0,0c0.2,0.1,0.5,0.2,0.6,0.4
            c0.2,0.2,0.3,0.4,0.5,0.7l0,0.1l0.1,0c0.2-0.1,0.4-0.1,0.5-0.3l1.2-1.2l-0.1-0.1c-0.2-0.3-0.4-0.6-0.6-0.8c-0.2-0.2-0.5-0.5-0.8-0.6
            c-0.6-0.4-1.3-0.7-2.1-0.8l0,0c-0.2,0-0.5-0.1-0.7-0.1C9.7,8.1,9,8.3,8.2,8.6c-0.6,0.3-1,0.6-1.4,1L4,12.5c-1,1-1.5,2.2-1.5,3.6
            c0,1.4,0.5,2.7,1.5,3.6c0.9,0.9,2.2,1.4,3.6,1.4c0,0,0,0,0,0c1.4,0,2.7-0.5,3.6-1.4l2-1.9L12.8,17.8C12.9,17.8,12.8,17.8,12.8,17.8z
            "/>
        <path d="M19.2,4.4L19.2,4.4c-1-1-2.3-1.5-3.6-1.5C14.2,3,13,3.5,12,4.4l-1.9,1.9l0.3,0c0,0,0,0,0.1,0c0.8,0,1.5,0.1,2.3,0.4l0.1,0
            L13.6,6c0.5-0.5,1.3-0.8,2-0.8c0,0,0,0,0,0c0.8,0,1.5,0.3,2,0.8c0.5,0.5,0.8,1.3,0.8,2s-0.3,1.5-0.8,2l-2.8,2.8
            c-0.4,0.4-0.8,0.6-1.5,0.7c-0.1,0-0.1,0-0.2,0c-0.1,0-0.2,0.1-0.4,0.1c-0.4,0-0.9-0.1-1.3-0.4l0,0c-0.2-0.1-0.5-0.3-0.7-0.4
            c-0.2-0.2-0.3-0.4-0.4-0.6l-0.1-0.1l-0.1,0c-0.2,0.1-0.4,0.2-0.5,0.3l-1.2,1.2l0.1,0.1c0.2,0.3,0.4,0.6,0.7,0.8
            c0.2,0.2,0.5,0.5,0.8,0.6c0.6,0.4,1.3,0.6,2.2,0.7c0.2,0,0.4,0,0.7,0c0.8,0,1.5-0.2,2.2-0.5c0.6-0.3,1-0.6,1.4-1l2.8-2.8
            C21.2,9.7,21.2,6.4,19.2,4.4z"/>
    </symbol>
    <symbol viewBox="0 0 24 24" id="icon-send">
        <polygon points="3 12 8.61 14.992 17 8 9 17.455 9 21 12.164 16.887 18 20 21 3 3 12"/>
    </symbol>
    <symbol viewBox="0 0 512 512" id="icon-trash">
        <path d="M413.7,133.4c-2.4-9-4-14-4-14c-2.6-9.3-9.2-9.3-19-10.9l-53.1-6.7c-6.6-1.1-6.6-1.1-9.2-6.8c-8.7-19.6-11.4-31-20.9-31
            h-103c-9.5,0-12.1,11.4-20.8,31.1c-2.6,5.6-2.6,5.6-9.2,6.8l-53.2,6.7c-9.7,1.6-16.7,2.5-19.3,11.8c0,0-1.2,4.1-3.7,13
            c-3.2,11.9-4.5,10.6,6.5,10.6h302.4C418.2,144.1,417,145.3,413.7,133.4z"/>
        <path d="M379.4,176H132.6c-16.6,0-17.4,2.2-16.4,14.7l18.7,242.6c1.6,12.3,2.8,14.8,17.5,14.8h207.2c14.7,0,15.9-2.5,17.5-14.8
            l18.7-242.6C396.8,178.1,396,176,379.4,176z"/>
    </symbol>
    <symbol viewBox="0 0 16 16" id="icon-github">
        <path d="M8 0C3.58 0 0 3.58 0 8c0 3.54 2.29 6.53 5.47 7.59.4.07.55-.17.55-.38
            0-.19-.01-.82-.01-1.49-2.01.37-2.53-.49-2.69-.94-.09-.23-.48-.94-.82-1.13-.28-.15-.68-.52-.01-.53.63-.01 1.08.58 1.23.82.72 1.21
            1.87.87 2.33.66.07-.52.28-.87.51-1.07-1.78-.2-3.64-.89-3.64-3.95 0-.87.31-1.59.82-2.15-.08-.2-.36-1.02.08-2.12 0 0 .67-.21
            2.2.82.64-.18 1.32-.27 2-.27.68 0 1.36.09 2 .27 1.53-1.04 2.2-.82 2.2-.82.44 1.1.16 1.92.08 2.12.51.56.82 1.27.82 2.15 0
            3.07-1.87 3.75-3.65 3.95.29.25.54.73.54 1.48 0 1.07-.01 1.93-.01 2.2 0 .21.15.46.55.38A8.013 8.013 0 0016 8c0-4.42-3.58-8-8-8z"/>
    </symbol>
    <symbol viewBox="0 0 32 24" id="icon-menu">
        <rect x="2" y="2" width="28" height="2"/>
        <rect x="2" y="11" width="28" height="2"/>
        <rect x="2" y="20" width="28" height="2"/>
    </symbol>
    <symbol viewBox="0 0 72.7 9.9" id="mail-address">
        <path d="M3.1,8.9c-0.9,0-1.7-0.3-2.2-0.9S0,6.7,0,5.6c0-1,0.3-1.9,0.8-2.5S2,2.3,2.8,2.3c0.8,0,1.4,0.3,1.9,0.8s0.7,1.2,0.7,2.1v0.6
            H1c0,0.8,0.2,1.3,0.6,1.7s0.9,0.6,1.5,0.6c0.7,0,1.4-0.1,2.1-0.4v0.9c-0.3,0.1-0.7,0.3-1,0.3S3.5,8.9,3.1,8.9z M2.8,3.1
            c-0.5,0-0.9,0.2-1.2,0.5S1.1,4.4,1,5h3.4c0-0.6-0.1-1.1-0.4-1.4S3.3,3.1,2.8,3.1z"/>
        <path d="M10,2.3c0.3,0,0.5,0,0.8,0.1l-0.1,0.9c-0.3-0.1-0.5-0.1-0.7-0.1c-0.5,0-1,0.2-1.3,0.6S8.1,4.7,8.1,5.4v3.4h-1V2.4h0.8L8,3.6
            h0c0.2-0.4,0.5-0.7,0.9-1S9.6,2.3,10,2.3z"/>
        <path d="M16.4,8.8V4.7c0-0.5-0.1-0.9-0.4-1.2s-0.6-0.4-1.1-0.4c-0.7,0-1.2,0.2-1.5,0.5S13,4.6,13,5.4v3.4h-1V2.4h0.8l0.2,0.9h0
            c0.2-0.3,0.5-0.6,0.8-0.7s0.8-0.3,1.2-0.3c0.8,0,1.4,0.2,1.7,0.6s0.6,1,0.6,1.8v4.2H16.4z"/>
        <path d="M19.3,0.6c0-0.2,0.1-0.4,0.2-0.5S19.7,0,19.8,0c0.2,0,0.3,0.1,0.4,0.2s0.2,0.3,0.2,0.5S20.4,1,20.3,1.1S20,1.3,19.8,1.3
            c-0.2,0-0.3-0.1-0.4-0.2S19.3,0.9,19.3,0.6z M20.3,8.8h-1V2.4h1V8.8z"/>
        <path d="M25.1,8.9c-0.9,0-1.7-0.3-2.2-0.9S22,6.7,22,5.6c0-1,0.3-1.9,0.8-2.5s1.2-0.9,2.1-0.9c0.8,0,1.4,0.3,1.9,0.8
            s0.7,1.2,0.7,2.1v0.6H23c0,0.8,0.2,1.3,0.6,1.7s0.9,0.6,1.5,0.6c0.7,0,1.4-0.1,2.1-0.4v0.9c-0.3,0.1-0.7,0.3-1,0.3
            S25.5,8.9,25.1,8.9z M24.8,3.1c-0.5,0-0.9,0.2-1.2,0.5S23.1,4.4,23.1,5h3.4c0-0.6-0.1-1.1-0.4-1.4S25.3,3.1,24.8,3.1z"/>
        <path d="M38.2,4.5c0,0.6-0.1,1.1-0.3,1.5s-0.4,0.8-0.7,1.1s-0.7,0.4-1.1,0.4c-0.3,0-0.6-0.1-0.8-0.3s-0.4-0.5-0.4-0.8h0
            c-0.2,0.3-0.4,0.6-0.7,0.8s-0.6,0.3-1,0.3c-0.6,0-1-0.2-1.4-0.6S31.2,6,31.2,5.3c0-0.8,0.2-1.4,0.7-1.9s1.1-0.7,1.8-0.7
            c0.3,0,0.6,0,0.9,0.1s0.6,0.1,0.9,0.2l-0.1,2.8v0.1c0,0.7,0.3,1,0.8,1c0.4,0,0.6-0.2,0.9-0.6s0.3-1,0.3-1.6c0-0.7-0.1-1.3-0.4-1.9
            s-0.7-0.9-1.2-1.2S34.6,1,33.9,1c-0.9,0-1.6,0.2-2.3,0.5s-1.1,0.9-1.5,1.5s-0.5,1.4-0.5,2.3c0,1.2,0.3,2.1,0.9,2.7s1.5,1,2.7,1
            c0.8,0,1.7-0.2,2.6-0.5v0.8c-0.8,0.3-1.6,0.5-2.6,0.5c-1.4,0-2.5-0.4-3.3-1.2s-1.2-1.9-1.2-3.3c0-1,0.2-1.9,0.6-2.7s1-1.4,1.8-1.8
            s1.7-0.7,2.7-0.7c0.8,0,1.6,0.2,2.2,0.5s1.2,0.9,1.5,1.5S38.2,3.7,38.2,4.5z M32.1,5.3c0,1,0.4,1.5,1.1,1.5c0.8,0,1.2-0.6,1.3-1.8
            l0.1-1.5c-0.3-0.1-0.6-0.1-0.9-0.1c-0.5,0-0.9,0.2-1.2,0.5S32.1,4.7,32.1,5.3z"/>
        <path d="M44.3,8.8V4.7c0-0.5-0.1-0.9-0.4-1.2s-0.6-0.4-1.1-0.4c-0.7,0-1.2,0.2-1.5,0.5s-0.5,1-0.5,1.8v3.4h-1V2.4h0.8l0.2,0.9h0
            c0.2-0.3,0.5-0.6,0.8-0.7s0.8-0.3,1.2-0.3c0.8,0,1.4,0.2,1.7,0.6s0.6,1,0.6,1.8v4.2H44.3z"/>
        <path d="M48.8,5.5l-2.2-3.1h1.1l1.7,2.5l1.7-2.5h1.1l-2.2,3.1l2.3,3.3h-1.1l-1.8-2.6l-1.8,2.6h-1.1L48.8,5.5z"/>
        <path d="M58,8.8V4.7c0-0.5-0.1-0.9-0.4-1.2S57,3.1,56.5,3.1c-0.7,0-1.2,0.2-1.5,0.5s-0.5,1-0.5,1.8v3.4h-1V2.4h0.8l0.2,0.9h0
            c0.2-0.3,0.5-0.6,0.8-0.7s0.8-0.3,1.2-0.3c0.8,0,1.4,0.2,1.7,0.6s0.6,1,0.6,1.8v4.2H58z"/>
        <path d="M60.8,8.2c0-0.3,0.1-0.5,0.2-0.6s0.3-0.2,0.5-0.2c0.2,0,0.4,0.1,0.5,0.2s0.2,0.3,0.2,0.6c0,0.3-0.1,0.4-0.2,0.6
            S61.7,9,61.5,9c-0.2,0-0.4-0.1-0.5-0.2S60.8,8.5,60.8,8.2z"/>
        <path d="M64,0.6c0-0.2,0.1-0.4,0.2-0.5S64.4,0,64.6,0c0.2,0,0.3,0.1,0.4,0.2s0.2,0.3,0.2,0.5S65.1,1,65,1.1s-0.2,0.2-0.4,0.2
            c-0.2,0-0.3-0.1-0.4-0.2S64,0.9,64,0.6z M65.1,8.8h-1V2.4h1V8.8z"/>
        <path d="M72.7,5.6c0,1-0.3,1.9-0.8,2.5s-1.3,0.9-2.2,0.9c-0.6,0-1.1-0.1-1.5-0.4s-0.8-0.7-1-1.2s-0.4-1.1-0.4-1.8
            c0-1,0.3-1.9,0.8-2.4s1.3-0.9,2.2-0.9c0.9,0,1.6,0.3,2.1,0.9S72.7,4.6,72.7,5.6z M67.8,5.6c0,0.8,0.2,1.4,0.5,1.9s0.8,0.6,1.4,0.6
            s1.1-0.2,1.5-0.6s0.5-1.1,0.5-1.9c0-0.8-0.2-1.4-0.5-1.9s-0.8-0.6-1.5-0.6c-0.6,0-1.1,0.2-1.4,0.6S67.8,4.8,67.8,5.6z"/>
    </symbol>
</svg>