<?xml version="1.0" encoding="utf-8"?>
<!-- Generator: Adobe Illustrator 23.1.0, SVG Export Plug-In . SVG Version: 6.00 Build 0)  -->
<svg version="1.1" id="b82ffadf-cd82-44b9-9c6d-e262570a0ac0"
	 xmlns="http://www.w3.org/2000/svg" xmlns:xlink="http://www.w3.org/1999/xlink" x="0px" y="0px" viewBox="0 0 752 651"
	 style="enable-background:new 0 0 752 651;" xml:space="preserve">
<style type="text/css">
	.st0{fill:#07020B;}
	.st1{fill:#A5AF86;}
	.st2{fill:none;stroke:#3F3D56;stroke-width:2;stroke-miterlimit:10;}
	.st3{fill:#2F2E41;}
	.st4{fill:#F0E5DF;}
	.st5{fill:#3F3D56;}
	.st6{fill:#28192B;}
	.st7{fill:#1E1320;}
</style>
<title>blooming</title>
<ellipse class="st0" cx="359" cy="558" rx="359" ry="93"/>
<circle class="st1" cx="495.6" cy="173.3" r="61.2"/>
<circle class="st1" cx="391.6" cy="317.3" r="61.2"/>
<ellipse class="st2" cx="392" cy="539" rx="359" ry="93"/>
<circle class="st3" cx="124.8" cy="429.5" r="79"/>
<rect x="88.8" y="491.5" class="st3" width="24" height="43"/>
<rect x="136.8" y="491.5" class="st3" width="24" height="43"/>
<ellipse class="st3" cx="108.8" cy="535" rx="20" ry="7.5"/>
<ellipse class="st3" cx="156.8" cy="534" rx="20" ry="7.5"/>
<circle class="st4" cx="126.8" cy="409.5" r="27"/>
<circle class="st5" cx="126.8" cy="409.5" r="9"/>
<path class="st1" d="M48.2,356c-6.4-28.6,14-57.4,45.5-64.5s62.3,10.4,68.6,39s-14.5,39.1-46.1,46.1S54.6,384.6,48.2,356z"/>
<ellipse transform="matrix(0.9193 -0.3935 0.3935 0.9193 -142.663 108.7983)" class="st3" cx="194" cy="402.3" rx="39.5" ry="12.4"/>
<ellipse transform="matrix(0.9193 -0.3935 0.3935 0.9193 -175.456 54.8387)" class="st3" cx="46" cy="455.3" rx="39.5" ry="12.4"/>
<path class="st4" d="M170.8,452.5c0,7.7-19.9,23-42,23s-43-14.3-43-22s20.9-6,43-6S170.8,444.8,170.8,452.5z"/>
<circle class="st1" cx="274.6" cy="432.3" r="61.2"/>
<line class="st2" x1="274.5" y1="542.9" x2="274.5" y2="431.9"/>
<circle class="st5" cx="274.5" cy="431.9" r="15.7"/>
<path class="st5" d="M274.5,500.4c0,0-2.2-48.2-48.2-42.6"/>
<line class="st2" x1="495.6" y1="543.7" x2="495.6" y2="173.5"/>
<circle class="st5" cx="495.6" cy="173.3" r="15.7"/>
<circle class="st5" cx="447.4" cy="441.2" r="15.7"/>
<path class="st5" d="M495.6,253.5c0,0-2.2-48.2-48.2-42.6"/>
<path class="st5" d="M495.6,390.2c0,0-2.2-48.2-48.2-42.6"/>
<path class="st2" d="M495.6,539.4c0,0,10.1-93.7-48.2-98.2"/>
<circle class="st5" cx="543.9" cy="441.2" r="15.7"/>
<path class="st2" d="M495.6,539.4c0,0-10.1-93.7,48.2-98.2"/>
<circle class="st5" cx="544.8" cy="294" r="15.7"/>
<path class="st2" d="M496.6,387.2c0,0-10.1-88.7,48.2-93.2"/>
<line class="st2" x1="391.7" y1="543.2" x2="391.7" y2="317.2"/>
<circle class="st5" cx="391.7" cy="317.2" r="15.7"/>
<path class="st5" d="M391.7,381.1c0,0-2.2-48.2-48.2-42.6"/>
<path class="st2" d="M391.7,538.9c0,0,10.1-92.7-48.2-97.2"/>
<circle class="st5" cx="343.5" cy="441.7" r="15.7"/>
<line class="st2" x1="218.5" y1="543" x2="542.5" y2="543"/>
<circle class="st6" cx="661" cy="351" r="32"/>
<circle class="st7" cx="157" cy="151" r="32"/>
<circle class="st6" cx="480" cy="32" r="32"/>
</svg>
