<?xml version="1.0" encoding="utf-8"?>
<!-- Generator: Adobe Illustrator 23.1.0, SVG Export Plug-In . SVG Version: 6.00 Build 0)  -->
<svg version="1.1" id="Layer_1" xmlns="http://www.w3.org/2000/svg" xmlns:xlink="http://www.w3.org/1999/xlink" x="0px" y="0px"
	 viewBox="0 0 1086.1 611.7" style="enable-background:new 0 0 1086.1 611.7;" xml:space="preserve">
<style type="text/css">
	.st0{opacity:0.1;fill:#A5AF86;enable-background:new    ;}
	.st1{fill:#07020B;enable-background:new    ;}
	.st2{fill:none;stroke:#535461;stroke-width:2;stroke-miterlimit:10;}
	.st3{fill:#A5AF86;}
	.st4{opacity:0.25;enable-background:new    ;}
	.st5{fill:#28192B;enable-background:new    ;}
	.st6{fill:#1E1320;enable-background:new    ;}
	.st7{fill:#917F86;}
	.st8{opacity:0.1;enable-background:new    ;}
	.st9{fill:#FFD037;}
	.st10{fill:#444053;}
	.st11{fill:#9D9CB5;}
	.st12{fill:url(#SVGID_1_);}
	.st13{opacity:2.000000e-02;enable-background:new    ;}
	.st14{fill:#EFB7B9;}
	.st15{fill:#925978;}
	.st16{opacity:0.1;}
	.st17{fill:url(#SVGID_2_);}
	.st18{fill:#FBBEBE;}
	.st19{fill:none;stroke:#A5AF86;stroke-miterlimit:10;}
	.st20{fill:#65617D;}
</style>
<title>features overview</title>
<path class="st0" d="M88.3,573.7c1.6,5.3-19.9,8.8-45.2,7.8c-22.7-0.9-40.5-5-41.8-9.4s14.2-7.9,36.6-8
	C62.9,564,86.7,568.3,88.3,573.7z"/>
<path class="st1" d="M604.7,83.4C542,83.1,482,67.1,424.5,49.3S310.2,11.9,248.8,3.2c-39.5-5.6-84.5-5.4-115.7,13.6
	C103.1,35,94,65.5,89.4,93.7c-3.5,21.2-5.3,43.5,6.1,63c7.9,13.5,21.6,24.8,31.3,37.7c33.5,45,12,101.9-22,147.4
	c-16,21.4-34.6,41.8-46.7,64.4s-17.4,48.3-5.8,70.8c11.6,22.3,38.2,38.6,66.9,49.8c58.3,22.8,126.6,28.1,193,30.4
	c147.1,5.1,294.7-2.2,441.9-9.6c54.5-2.7,109.2-5.5,162.6-14c29.7-4.8,60.3-11.9,81.5-27.9c27-20.3,33-53.8,14-78
	c-31.8-40.6-117.4-48.8-140-92.7c-12.5-24.1-0.9-51.7,15.8-74.7c35.8-49.5,96.8-93.7,98.7-149.3c1.3-38.2-29.4-75.7-76-92.7
	C861.9,0.4,795,4.4,760.1,36.6C724.2,69.8,660,83.8,604.7,83.4z"/>
<g id="db976b58-83c4-4bad-bfc1-713fe8b9d2f6">
	<path class="st2" d="M569,243.9c0,0-27.5-48.7-68.9-62.7c-17.4-5.8-32.5-17-42.9-32.1c-4.9-7.2-9.1-14.8-12.7-22.8"/>
	<path class="st3" d="M418.6,117.4c4.7,4.6,26.7,9.3,26.7,9.3s-5.4-21.8-10.1-26.4c-4.7-4.6-12.3-4.5-16.8,0.3
		C413.7,105.2,413.9,112.8,418.6,117.4z"/>
	<path class="st3" d="M431,156.9c6.5,1.3,27.5-6.7,27.5-6.7s-16.5-15.4-22.9-16.7c-6.5-1.3-12.7,2.9-14,9.4
		C420.4,149.3,424.6,155.6,431,156.9z"/>
	<path class="st3" d="M476.2,199.5c6.2-2.1,20.3-19.6,20.3-19.6s-21.9-5-28.1-2.9c-6.2,2.1-9.6,8.8-7.6,15c2.1,6.2,8.8,9.6,15,7.6
		C476,199.6,476.1,199.6,476.2,199.5L476.2,199.5z"/>
	<path class="st3" d="M476.8,133.1c0,6.6-11.9,25.6-11.9,25.6s-11.9-19-11.9-25.6c0-6.6,5.3-11.9,11.9-11.9S476.8,126.5,476.8,133.1
		L476.8,133.1z"/>
	<path class="st3" d="M525,162.5c-2,6.3-19,20.9-19,20.9s-5.7-21.8-3.7-28c2-6.3,8.6-9.8,14.9-7.8
		C523.4,149.6,526.9,156.2,525,162.5L525,162.5L525,162.5z"/>
	<path class="st4" d="M418.6,117.4c4.7,4.6,26.7,9.3,26.7,9.3s-5.4-21.8-10.1-26.4c-4.7-4.6-12.3-4.5-16.8,0.3
		C413.7,105.2,413.9,112.8,418.6,117.4z"/>
	<path class="st4" d="M431,156.9c6.5,1.3,27.5-6.7,27.5-6.7s-16.5-15.4-22.9-16.7c-6.5-1.3-12.7,2.9-14,9.4
		C420.4,149.3,424.6,155.6,431,156.9z"/>
	<path class="st4" d="M476.2,199.5c6.2-2.1,20.3-19.6,20.3-19.6s-21.9-5-28.1-2.9c-6.2,2.1-9.6,8.8-7.6,15c2.1,6.2,8.8,9.6,15,7.6
		C476,199.6,476.1,199.6,476.2,199.5L476.2,199.5z"/>
	<path class="st4" d="M476.8,133.1c0,6.6-11.9,25.6-11.9,25.6s-11.9-19-11.9-25.6c0-6.6,5.3-11.9,11.9-11.9S476.8,126.5,476.8,133.1
		L476.8,133.1z"/>
	<path class="st4" d="M525,162.5c-2,6.3-19,20.9-19,20.9s-5.7-21.8-3.7-28c2-6.3,8.6-9.8,14.9-7.8
		C523.4,149.6,526.9,156.2,525,162.5L525,162.5L525,162.5z"/>
	<path class="st2" d="M567.5,243c0,0-5.4-55.7-37.5-85.3c-13.6-12.3-22.8-28.7-26.2-46.7c-1.6-8.6-2.4-17.2-2.3-25.9"/>
	<path class="st3" d="M481.2,66.3c2.5,6.1,20.6,19.3,20.6,19.3s3.9-22.1,1.5-28.2c-2.4-6.1-9.2-9.2-15.4-6.8s-9.2,9.2-6.8,15.4
		C481.1,66,481.2,66.1,481.2,66.3z"/>
	<path class="st3" d="M476.6,107.4c5.4,3.8,27.8,5,27.8,5s-8.7-20.7-14.1-24.5c-5.4-3.8-12.8-2.5-16.6,2.9S471.2,103.6,476.6,107.4
		L476.6,107.4z"/>
	<path class="st3" d="M500.6,164.8c6.5,0.5,26.5-9.7,26.5-9.7s-18-13.5-24.5-14c-6.6-0.6-12.3,4.3-12.9,10.9
		C489.2,158.5,494.1,164.2,500.6,164.8L500.6,164.8z"/>
	<path class="st3" d="M528,104.2c-2.7,6-21.3,18.6-21.3,18.6s-3.2-22.2-0.5-28.3c2.7-6,9.7-8.7,15.7-6.1
		C528,91.2,530.7,98.2,528,104.2z"/>
	<path class="st3" d="M560.2,150.6c-4.3,4.9-25.9,11.4-25.9,11.4s3.6-22.2,8-27.1c4.3-4.9,11.9-5.4,16.8-1.1
		C564.1,138.2,564.5,145.7,560.2,150.6L560.2,150.6L560.2,150.6z"/>
</g>
<path class="st0" d="M826.5,596.9c3,6-17.9,12.4-43.8,14.3c-23.2,1.7-42.2-1-44.6-5.9s12.3-10.8,35-13.5
	C798.4,588.8,823.6,591,826.5,596.9z"/>
<polygon class="st5" points="218.8,279.5 537.3,166.7 537.3,556.5 218.8,549.9 "/>
<polygon class="st5" points="0,343.9 181.8,279.5 181.8,549.9 0,549.9 "/>
<polygon class="st6" points="537.3,166.7 855.9,279.5 855.9,549.9 537.3,556.5 "/>
<polygon class="st6" points="1077.9,344.7 893.9,279.5 893.9,549.9 1077.9,549.9 "/>
<path class="st7" d="M105.9,390.9c-1.3,0-2.3,1.8-2.3,3.9v48.9c0.1,4.8-1.1,9.6-3.3,13.9c-2.1,3.7-5.3,6-8.4,6h-2
	c-3,0-5.9-2.2-8.2-6.2c-2.4-4.3-3.6-9.1-3.6-14v-63.1c-0.1-3.5,0.8-6.9,2.6-9.9c1.7-2.6,3.9-4.1,6.2-4.1s4.4,1.5,6,4.1
	c1.7,3.1,2.5,6.5,2.5,10v58.9c0,4.3-2,8.1-4.4,8.1c-2,0-4.2-3.2-4.2-8.1v-33.7c0-2.2-1.1-3.9-2.3-3.9s-2.4,1.8-2.4,3.9v33.6
	c0,8.9,3.8,15.7,8.9,15.7c2.5,0,4.8-1.5,6.4-4.3c1.8-3.5,2.8-7.4,2.6-11.3v-58.9c0.1-5.4-1.2-10.8-3.9-15.5
	c-2.5-4.1-5.8-6.4-9.3-6.4s-6.8,2.3-9.4,6.4c-2.7,4.8-4,10.1-3.9,15.6v63.1c0,7.2,1.8,14.6,4.9,19.6s7.2,8,11.4,8h2.1
	c4.1,0,8.3-2.9,11.4-8.1c1.6-2.7,2.8-5.6,3.6-8.7c0.9-3.5,1.3-7,1.3-10.6v-49C108.2,392.5,107.2,390.8,105.9,390.9L105.9,390.9z"/>
<path class="st3" d="M553.6,499.8c0,0,5.9,7.8-2.7,19.5c-8.7,11.7-15.8,21.6-12.9,28.9c0,0,13.1-21.8,23.7-22
	S565.3,512.8,553.6,499.8z"/>
<path class="st8" d="M553.6,499.8c0.5,0.8,0.9,1.6,1.2,2.4c10.4,12.2,15.9,23.6,5.9,23.9c-9.3,0.3-20.5,16.9-23.1,21.1
	c0.1,0.3,0.2,0.7,0.3,1c0,0,13.1-21.8,23.7-22S565.3,512.8,553.6,499.8z"/>
<path class="st9" d="M564.6,509.7c0,2.7-0.3,4.9-0.7,4.9s-0.7-2.2-0.7-4.9c0-2.7,0.4-1.5,0.8-1.5S564.6,506.9,564.6,509.7z"/>
<path class="st9" d="M568.4,512.9c-2.4,1.3-4.5,2.1-4.7,1.8c-0.2-0.3,1.6-1.7,4-3c2.4-1.3,1.5-0.3,1.6,0
	C569.6,512,570.8,511.6,568.4,512.9z"/>
<path class="st3" d="M522.3,499.8c0,0-5.9,7.8,2.7,19.5c8.7,11.7,15.8,21.6,12.9,28.9c0,0-13.1-21.8-23.7-22
	C503.6,525.9,510.6,512.8,522.3,499.8z"/>
<path class="st8" d="M522.3,499.8c-0.5,0.8-0.9,1.6-1.2,2.4c-10.4,12.2-15.9,23.6-5.9,23.9c9.3,0.3,20.5,16.9,23.1,21.1
	c-0.1,0.3-0.2,0.7-0.3,1c0,0-13.1-21.8-23.7-22C503.6,525.9,510.6,512.8,522.3,499.8z"/>
<path class="st9" d="M511.3,509.7c0,2.7,0.3,4.9,0.7,4.9c0.4,0,0.7-2.2,0.7-4.9c0-2.7-0.4-1.5-0.8-1.5
	C511.5,508.2,511.3,506.9,511.3,509.7z"/>
<path class="st9" d="M507.5,512.9c2.4,1.3,4.5,2.1,4.7,1.8c0.2-0.3-1.6-1.7-4-3c-2.4-1.3-1.5-0.3-1.6,0
	C506.3,512,505,511.6,507.5,512.9z"/>
<ellipse class="st0" cx="537.9" cy="597.9" rx="62" ry="9.5"/>
<path class="st10" d="M569.9,537.7l-0.3,2.4l-0.4,3.4l-0.2,1.4l-0.4,3.4l-0.2,1.4l-0.4,3.4l-4.8,38.9c-0.4,3.5-6.1,6.2-12.9,6.2
	h-24.7c-6.8,0-12.5-2.7-12.9-6.2l-4.7-38.9l-0.4-3.4l-0.2-1.4l-0.4-3.4l-0.2-1.4l-0.4-3.4l-0.3-2.4c-0.2-2,2.8-3.6,6.7-3.6h50.4
	C567,534.1,570.1,535.7,569.9,537.7z"/>
<polygon class="st11" points="569.6,540.1 569.1,543.5 506.7,543.5 506.3,540.1 "/>
<polygon class="st11" points="569,545 568.5,548.4 507.3,548.4 506.9,545 "/>
<polygon class="st11" points="568.4,549.8 568,553.2 507.9,553.2 507.5,549.8 "/>
<path class="st7" d="M417.4,326.5l-9.5,12.7c-0.2,0.2-0.5,0.4-0.7,0.3l-9.9-2.4c-0.4-0.1-0.6-0.5-0.7-0.9l-1.8-13.1
	c-0.1-0.4,0-0.7,0.2-1l9.5-12.7c0.7-1,0.6-2.5-0.2-3.4c-1.8-1.8-4.2-2.9-6.8-3c-0.1,0-0.3,0-0.4,0c-2.7,0.2-8.4,2.2-12.8,8.4
	c-4.3,6-8.7,17.1-4.8,29.4c0.5,1.5,1,3.5-0.6,5.5s-42.5,53-42.5,53c-3.8,4.4-3.5,12.5,0,17.2c1.5,2.2,4,3.5,6.6,3.6
	c2.6,0,5-1.4,6.3-3.7c0,0,38.1-53.8,40-56.3c0.5-0.8,1.4-1.4,2.4-1.4c0.7,0,1.3,0.3,1.8,0.7c2,1.4,4.4,2.1,6.9,2.1
	c5.7,0,11.7-3.5,15.4-8.3c3.8-4.9,6-10.8,6.3-16.9c0.1-3.4-0.7-6.7-2.3-9.6c-0.3-0.7-1.2-1.1-1.9-0.8
	C417.8,326,417.6,326.2,417.4,326.5L417.4,326.5z M345.4,410.4c-0.8,1.2-2.3,1.5-3.5,0.7c-0.3-0.2-0.5-0.4-0.7-0.7
	c-1.1-1.7-1.1-3.9,0-5.6c0.8-1.2,2.3-1.5,3.5-0.7c0.3,0.2,0.5,0.4,0.7,0.7C346.5,406.5,346.6,408.7,345.4,410.4L345.4,410.4z"/>
<path class="st7" d="M755.5,351c-2.6-30.5-23.3-54.3-48.5-54.3c-16.7,0-31.3,10.4-40.1,26.3c-2.7-1.4-5.7-2.1-8.8-2.1
	c-12.7,0-23,14-23.2,29.8c-13,5.2-21.6,21-21.6,37.6c0,20.4,13.2,38.3,29.6,38.3h107.4c16.3,0,29.6-18,29.6-38.3
	C779.9,370.1,769.4,354.1,755.5,351L755.5,351z M731.2,344l-43.5,54.5l0,0c-0.6,0.7-2,2.2-3.8,2.2c-1.5-0.2-2.9-1-3.8-2.3
	l-18.2-22.8c-0.5-0.7-0.5-1.6,0-2.3l5.8-7.2c0.2-0.3,0.5-0.5,0.9-0.5c0.4,0,0.7,0.2,0.9,0.5l14.5,18l39.7-49.9
	c0.2-0.3,0.5-0.5,0.9-0.5c0.4,0,0.7,0.2,0.9,0.5l5.7,7.4C731.7,342.3,731.8,343.2,731.2,344L731.2,344z"/>
<ellipse class="st3" cx="1018.9" cy="386.1" rx="9.9" ry="13.2"/>
<path class="st7" d="M1018.9,404.4c-1.1,0-2.2-0.2-3.2-0.5l-9.8,13.3c-0.2,0.2-0.2,0.5,0,0.8l15.5,22c1,1.5,1,3.5,0,5.1
	c-0.4,0.6-1.1,1-1.9,1c-0.8,0-1.5-0.4-1.9-1l-15.4-22c-0.1-0.2-0.3-0.2-0.5-0.1c0,0-0.1,0.1-0.1,0.1l-3.8,5.1
	c-3.2,4.3-7.3,3.6-11.8,3.7s-8.9-2.5-12.1-6.8l-3.6-4.9c-0.1-0.2-0.3-0.2-0.5-0.1c0,0-0.1,0.1-0.1,0.1l-15.5,22
	c-0.4,0.6-1.1,1-1.9,1c-0.8,0-1.5-0.4-1.9-1c-1-1.5-1-3.5,0-5.1l15.5-22c0.1-0.2,0.1-0.5,0-0.8L943.8,384c-0.3-0.4-0.7-0.1-0.7,0.4
	v60.3c0,4.8,3,8.8,6.6,8.8l72.5,3c3.6,0,6.6-4,6.6-8.8v-48.9C1026.3,402.2,1022.8,404.4,1018.9,404.4z"/>
<path class="st7" d="M1005.2,386.1c0-3,0.6-6,1.7-8.8l-57.2-3c-1.6,0-3.1,0.7-4.1,1.9l32.3,43.9c1.8,2.7,4.8,4.4,8.1,4.5
	c3,0,5.9,1.4,8.1-1.5l16.6-22.5C1007.3,397.3,1005.2,392,1005.2,386.1z"/>
<linearGradient id="SVGID_1_" gradientUnits="userSpaceOnUse" x1="836.8781" y1="-138.57" x2="836.8781" y2="87.4609" gradientTransform="matrix(1 0 0 -1 -56.96 469.85)">
	<stop  offset="0" style="stop-color:#808080;stop-opacity:0.25"/>
	<stop  offset="0.54" style="stop-color:#808080;stop-opacity:0.12"/>
	<stop  offset="1" style="stop-color:#808080;stop-opacity:0.1"/>
</linearGradient>
<path class="st12" d="M817.4,446c0,0,1.2-1.1,0.8-1.9c-0.2-0.5-0.2-1,0-1.5c0,0-2.6-10.1-3.5-11.2c-0.6-0.7-1.1-1.6-1.4-2.5
	c0.1-0.2,0.1-0.4,0.1-0.6c0-1-0.4-2-1-2.8c-0.8-1.1-1.2-2.4-1.2-3.8c0-0.2,0-0.3,0-0.5l0,0l0,0c-0.6-1.5-1.9-2.7-3.5-3.1
	c0.3-2.2,0.8-4.3,0.9-6.5c0.5-6.8-2.1-13.3-4.5-19.7c-0.5-1.6-1.3-3.1-2.2-4.5c-2.2-3-5.6-4.8-9.3-5.1c-1.3-0.2-2.7,0-4,0.4
	c-1.3,0.6-2.4,1.4-3.5,2.3c-1.1,0.9-2.1,1.8-3.1,2.8l-0.1,0.1l-0.3,0.4l-0.1,0.1L781,389l-0.1,0.1c-0.1,0.2-0.3,0.3-0.4,0.5l0,0
	c-0.1,0.2-0.3,0.3-0.4,0.5l-0.1,0.2l-0.3,0.4l-0.1,0.2c-0.1,0.1-0.2,0.3-0.2,0.4l-0.1,0.2c-0.1,0.2-0.2,0.4-0.3,0.6l-0.4,0.8v0.1
	l-0.2,0.5c-0.3,0.6-0.5,1.3-0.9,1.9l0,0l-0.1,0.1l-0.7,0.9c-0.3,0.4-0.6,0.9-0.8,1.4l-0.1,0.2c0,0.1,0,0.2-0.1,0.2l-0.1,0.2
	c0,0.1,0,0.2-0.1,0.2c0,0.1,0,0.1,0,0.2l-0.1,0.2c0,0.1,0,0.1,0,0.2s0,0.2,0,0.2v0.2v0.2c0,0.1,0,0.2,0,0.3s0,0.1,0,0.2s0,0.3,0,0.4
	s0,0.1,0,0.2c0,0.1,0,0.2,0,0.3c0,0.1,0,0.1,0,0.2c0,0.1,0,0.2,0,0.3v0.2c0,0.1,0,0.2,0,0.3c0,0.1,0,0.1,0,0.2l0.1,0.3
	c0,0,0,0.1,0,0.2l0.1,0.3c0,0,0,0.1,0,0.1s0.1,0.3,0.2,0.4c0.3,0.7,0.7,1.3,1.1,1.9c0.3,0.4,0.6,0.8,0.9,1.2l0.4,0.6
	c0.3,0.4,0.6,0.8,0.8,1.3c1.4,2.7,1.3,6-0.3,8.6l-0.4,0.5c-0.2,0.3-0.3,0.6-0.4,1c-0.1,0.6,0.1,1.3,0.6,1.7l-0.9,0.2
	c-0.7,0.2-1.2,0.4-1.2,0.4c-0.6-0.1-1.2-0.1-1.8,0c-0.8,0.3-1.6,0.7-2.2,1.4c0,0-3.8,0.5-5.1-0.7s-5.6-1.5-5.6-1.5s-1.2-2.4-2.6-3.2
	s-4.6-2.1-4.7-2.9c-0.3-0.8-0.7-1.5-1.2-2.1c-0.7-0.1-1.3-0.2-2-0.2l-0.2-0.4l-2.7-4.6c0,0-3.3-3.9-5.2-4.3s2.5,4.2,2.8,4.4
	c-1.3-0.9-3.1-0.6-4,0.7c-1.4,1.6,2.3,5.3,4.7,7.3l0.4,0.3c0,0.2,0,0.4,0.1,0.6c1,5.5,6.9,10.2,6.9,10.2s0.7,3.1,2.9,3.8
	c1.8,0.6,11.2,4.8,16,5.7c-0.4,1.1-0.9,3.5,1.1,7.1c0,0,0.5,6.4-0.6,7.3s-1,10.1-1,10.1s-4,16.2,0,19.6c0.3,0.2,0.5,0.4,0.8,0.5
	c0,0.3,0.1,0.5,0.1,0.8c0.2,1.6,0.2,3.3-0.2,4c-1,1.6,0.3,5.9,0.3,5.9s-3.9,21.9-2.1,29.6c1.1,5.8,1.6,11.6,1.5,17.5
	c0,0-0.6,6.8,2.4,10.9c0.3,1,0.5,2,0.6,3c0.2,2,0.7,3.9,1.5,5.7c0.7,1.3,2,6.8,0.9,8.3c-1.1,1.5,1.2,17.7,1.2,17.7s-1.9,5,0,7.6
	l0.1,0.1c-1.1,0-2.3-0.2-3.3-0.5c-2.1-0.7-0.5,2,2,3.9c-1.1,2.5-2.6,5.9-3.1,7c-2.2,0.4-6.6,1-9.2,0.4c-3.5-0.8,1.5,4.8,6.3,5.9
	c3.4,0.6,6.8,0.9,10.2,0.7l3.1-3.4c2.5,0.3,5,0.4,7.5,0.3l-0.3,3.2h1.8v-3.3c1.1-0.1,2.3-0.3,3.5-0.5c0,0,0.1-3.5-0.2-6.7l1.1,0.1
	l0.2-1.8l3.9,0.7l3.5-29c0,0,0.4-10.8,1.3-16.8s-1.8-26.3-1.8-26.3s-0.2-1-0.4-2.9s0-12.9,0-12.9s1.4-6,1.2-6.5s0.1-3.1,0.1-3.1
	c6-12.2-1.4-23.3-4-26.6c0.1-0.1,0.2-0.3,0.3-0.5c0-0.1,0-0.1,0-0.2c-0.4-1-0.9-2-1.4-3l1.5-1.9c0.5,0.8,0.9,1.3,0.9,1.3
	s1.6-3.6,3.3-5s9.5-14.4,9.5-14.4s1.8-1.2,0.9-2.2S817.4,446,817.4,446z M793.3,548.9c-0.1-0.4-0.4-0.8-0.7-1.1c0,0-0.3-2-0.4-4.6
	c0.6,2,1.2,3.5,1.2,3.5L793.3,548.9z M797.8,596.5c0-0.2,0-0.4,0-0.5h0.1L797.8,596.5z M799,464.1V464c0-0.5,0.2-1,0.6-1.3
	c0.2-0.1,0.4-0.4,0.3-0.7c0-0.4-0.2-0.8-0.5-1.2c0.2,0.1,0.8,0.5,1.2-0.7c0.1-0.2,0.1-0.4,0.1-0.6c-0.1-1-0.5-1.9-1.1-2.6l4.3-9.1
	c0.5,0.1,1,0.3,1.4,0.3l0,0c-1.1,3.5-2.1,7.7-2.1,7.7l-3.3,7.3c0.2,0.1,0.4,0.2,0.6,0.4L799,464.1z"/>
<path class="st10" d="M784.6,590.8c0,0-5.6,0.7-8.3-0.3c-2.7-0.9,0.8,4,4.5,5.2c2.6,0.8,5.3,1.2,8,1.4l4.3-4.1l4.6,0.4l-0.8,4.5
	l1.4,0.1l0.5-5.9L784.6,590.8z"/>
<path class="st8" d="M784.6,590.8c0,0-5.6,0.7-8.3-0.3c-2.7-0.9,0.8,4,4.5,5.2c2.6,0.8,5.3,1.2,8,1.4l4.3-4.1l4.6,0.4l-0.8,4.5
	l1.4,0.1l0.5-5.9L784.6,590.8z"/>
<path class="st10" d="M776.5,601.1c0,0-6.7,1.5-10.2,0.6s1.5,4.8,6.1,5.8c3.3,0.6,6.6,0.9,9.9,0.7l4.8-5.4l5.6-0.1l-0.5,5.6h1.8
	v-7.2H776.5z"/>
<path class="st8" d="M776.5,601.1c0,0-6.7,1.5-10.2,0.6s1.5,4.8,6.1,5.8c3.3,0.6,6.6,0.9,9.9,0.7l4.8-5.4l5.6-0.1l-0.5,5.6h1.8v-7.2
	H776.5z"/>
<path class="st10" d="M801.4,472.9c0,0,11.5,12.8,4.6,27.3c0,0-0.4,2.6-0.1,3s-1.1,6.5-1.1,6.5s-0.2,10.9,0,12.7s0.4,2.8,0.4,2.8
	s2.6,20.1,1.8,26.1s-1.2,16.7-1.2,16.7l-3.4,28.8l-17.7-3.3l8-39.5l0.3-7c0,0-3.3-8.6-1.8-12.9s-0.4-59.6-0.4-59.6L801.4,472.9z"/>
<path class="st13" d="M801.4,472.9c0,0,11.5,12.8,4.6,27.3c0,0-0.4,2.6-0.1,3s-1.1,6.5-1.1,6.5s-0.2,10.9,0,12.7s0.4,2.8,0.4,2.8
	s2.6,20.1,1.8,26.1s-1.2,16.7-1.2,16.7l-3.4,28.8l-17.7-3.3l8-39.5l0.3-7c0,0-3.3-8.6-1.8-12.9s-0.4-59.6-0.4-59.6L801.4,472.9z"/>
<path class="st10" d="M792.9,534.9c-2,3.9-0.7,13.3-0.7,13.3c2.7,2.3,1.2,22.4,1.2,22.4s1.8,19.8,3,22.1c1.2,2.3,1,11.8,1,11.8
	c-13.6,2.5-22.4-2.9-22.4-2.9s4.3-9.9,4.4-10.3c0-0.3,0.6,0.4,0.8,0.7l-0.8-1.1c-1.8-2.6,0-7.6,0-7.6s-2.3-16-1.2-17.5
	s-0.2-6.9-0.8-8.2c-0.8-1.8-1.3-3.7-1.5-5.6c-0.1-1-0.2-2-0.5-2.9c-2.9-4.1-2.3-10.8-2.3-10.8c0.1-5.8-0.4-11.6-1.5-17.3
	c-1.7-7.7,2.1-29.3,2.1-29.3s-1.2-4.2-0.3-5.8c0.4-0.7,0.4-2.4,0.2-4c-0.2-2-0.6-3.9-0.6-3.9l25.2-4.4c0.5,0.9,1,1.7,1.5,2.5
	c8.3,15.4,2.7,21.1,2.7,21.1l-5.3,16.4C796.9,513.5,795,531.1,792.9,534.9z"/>
<path class="st14" d="M753,414.6l-3.6,3c0,0-0.7-0.6-1.7-1.4c-2.3-2-5.9-5.7-4.5-7.3c0.8-1.2,2.5-1.6,3.8-0.7c0,0,0.1,0,0.1,0.1
	c-0.2-0.2-4.4-4.7-2.7-4.3s5,4.2,5,4.2l2.6,4.6L753,414.6z"/>
<polygon class="st14" points="801.2,464.4 797,465.7 800.2,471.3 803.9,466.5 "/>
<circle class="st14" cx="791.3" cy="399.4" r="12.1"/>
<path class="st14" d="M784.2,403.9c0,0,11,17.4,0.6,18.9s14,12.1,14,12.1l9.1-9.2c0,0-9.5-16.4-8-22.7S784.2,403.9,784.2,403.9z"/>
<path class="st8" d="M799.5,476c-2.4,0.7-4.9,1.3-7.4,1.7c0,0-13.6,6-18.5,4c-0.2-2-0.6-3.9-0.6-3.9l25.1-4.4
	C798.6,474.4,799.1,475.2,799.5,476z"/>
<path class="st3" d="M812,430.4l-2.5,5.1l-2.8,5.7l-0.4,0.8l-3.3,7.1l-4.2,9c0,0,1.5,1.8,1,3.1s-1.1,0.7-1.2,0.7
	c0.1,0.1,1,1.3,0.2,1.8c-0.5,0.4-0.7,1.1-0.5,1.8c0,0,3.4,5.6,4.1,7.7s-10.3,3.8-10.3,3.8s-15.6,6.9-19.5,3.5s0-19.5,0-19.5
	s0-9.2,1-10s0.5-7.2,0.5-7.2c-2.7-4.9-0.8-7.7-0.8-7.7l-0.7-12.5c0,0,1.2-1.3,2.1-1.4c0.6-0.1,1.2-0.1,1.8,0c0,0,0.5-0.2,1.2-0.4
	c1.5-0.4,3.9-1,4.8-0.6c1.3,0.7,9.6-1,9.6-1c3.6-0.5,7.2-0.9,10.8-1c1.2-0.1,2.5,0.1,3.7,0.4c1.6,0.4,3,1.5,3.5,3.1
	c-0.1,1.5,0.3,3,1.1,4.2C812.7,429.4,812,430.4,812,430.4z"/>
<path class="st8" d="M753,414.6l-3.6,3c0,0-0.7-0.6-1.7-1.4c-0.3-3.1,2.4-3.5,4.2-3.4L753,414.6z"/>
<path class="st3" d="M774.2,423.5l-1.6,0.1c0,0-3.7,0.5-4.9-0.7s-5.4-1.5-5.4-1.5s-1.2-2.4-2.5-3.1s-4.4-2.1-4.5-2.9
	c-0.3-0.8-0.7-1.5-1.2-2.1c0,0-6.9-1.7-5.9,3.8s6.6,10.2,6.6,10.2s0.7,3,2.8,3.8s15.9,7.2,18.1,5.5S774.2,423.5,774.2,423.5z"/>
<path class="st8" d="M811.2,427c-0.9-1.2-1.2-2.7-1.1-4.2c-0.6-1.6-1.9-2.7-3.5-3.1c-0.6-0.2-1.2-0.3-1.8-0.3
	c1.6,0.4,2.9,1.5,3.5,3.1c-0.1,1.5,0.2,3,1.1,4.2c1.5,2.4,0.8,3.4,0.8,3.4l-2.5,5.1l-2.8,5.7l-0.4,0.8l-3.3,7.1l-4.2,9
	c0,0,1.5,1.8,1,3.1s-1.1,0.7-1.2,0.7c0.1,0.1,1,1.3,0.2,1.8c-0.5,0.4-0.7,1.1-0.6,1.8c0,0,3.4,5.6,4.1,7.7s-10.3,3.8-10.3,3.8
	s-10.8,4.8-16.7,4.4c5,2,18.5-4.1,18.5-4.1s11-1.8,10.3-3.8s-4.1-7.7-4.1-7.7c-0.2-0.6,0.1-1.3,0.5-1.8c0.8-0.5-0.1-1.7-0.2-1.8
	c0.1,0.1,0.8,0.6,1.2-0.7s-1-3.1-1-3.1l4.2-9l3.3-7.1l0.4-0.8l2.8-5.7l2.5-5.1C812,430.4,812.7,429.4,811.2,427z"/>
<path class="st3" d="M810.4,429l1.7,1.4c0.3,0.9,0.8,1.8,1.4,2.5c0.9,1,3.4,11.1,3.4,11.1c-0.2,0.5-0.2,1,0,1.5
	c0.4,0.7-0.7,1.8-0.7,1.8s-0.5-0.2,0.4,0.8s-0.8,2.2-0.8,2.2s-7.6,12.9-9.1,14.3s-3.1,5-3.1,5s-3.3-5.2-4.1-5.3l3.2-7.3
	c0,0,2.2-10.1,3.9-12s-0.8-8.2-0.8-8.2L810.4,429z"/>
<path class="st8" d="M811.4,447.9c-1.4,1.7-3.8,2-6,1.8c-0.3,0-0.6-0.1-1-0.1c-0.5-0.1-0.9-0.2-1.4-0.3c-1.6-0.5-3.2-1.2-4.6-2.3
	c-0.3-0.3-0.6-0.5-1-0.6c-0.9-0.1-1.8,0.4-2.2,1.2c-0.5,0.8-0.7,1.6-1.2,2.4c-1.1,1.4-2.7,2.3-4.5,2.2c-1.8,0-3.5-0.4-5.1-1
	c1.5-1.6,2.6-3.4,3.3-5.5c0.3-1.4,0.4-2.7,0.3-4.1c-0.4-6.5-2.7-13.4-8-17.2c-0.9-0.7-2-1.4-2.3-2.4c1.5-0.4,3.9-1,4.8-0.6
	c1.3,0.7,9.6-1,9.6-1c3.6-0.5,7.2-0.9,10.8-1c1.2-0.1,2.5,0.1,3.7,0.4c-0.6,2.7-0.7,5.5-0.3,8.3c0.4,1.7,1,3.3,1.8,4.9
	c0.5,0.9,1,1.8,1.5,2.7c1.4,2.5,2.8,5,3,7.9C812.8,445,812.4,446.6,811.4,447.9z"/>
<path class="st8" d="M793.2,460.9c0.7-0.2,1.4-0.3,2.2-0.2c0.6,0.2,1.2,0.5,1.6,0.9h-4.7c-1.2,0-3.1,0.1-4-0.8
	C789,460,792,461,793.2,460.9z"/>
<path class="st15" d="M776.8,398c-1.5,2-1.8,4.6-0.8,6.9c0.8,1.8,2.2,3.2,3.1,4.9c1.4,2.7,1.3,5.9-0.3,8.5c-0.4,0.5-0.6,1-0.7,1.5
	c-0.2,1.4,1.2,2.4,2.4,3.2c5.3,3.8,7.6,10.7,8,17.2c0.1,1.4,0.1,2.8-0.3,4.1c-0.7,2-1.8,3.9-3.3,5.5c1.6,0.6,3.4,0.9,5.1,1
	c1.8,0,3.5-0.8,4.5-2.2c0.5-0.7,0.7-1.6,1.2-2.4c0.4-0.8,1.3-1.3,2.2-1.2c0.4,0.1,0.7,0.3,1,0.6c2,1.5,4.4,2.4,6.9,2.7
	c2.2,0.3,4.6-0.1,6-1.8c0.9-1.3,1.3-2.9,1.1-4.5c-0.5-5.6-5.2-10-6.3-15.5c-0.9-4.5,0.7-9,1-13.5c0.4-6.7-2-13.2-4.4-19.5
	c-0.5-1.6-1.2-3-2.1-4.4c-2.1-2.9-5.4-4.7-9-5c-1.3-0.2-2.6,0-3.9,0.4c-1.2,0.6-2.4,1.3-3.3,2.3c-2.3,2-4.6,4-6,6.8
	c-0.5,1.1-0.9,2.3-1.5,3.4"/>
<g class="st16">
	<path d="M778.9,395.6c0.6-1.1,1-2.3,1.5-3.4c0.5-1,1.2-2,1.9-2.9c-1.4,1.3-2.5,2.8-3.4,4.5c-0.5,1.1-0.9,2.3-1.4,3.3l0.7-0.6
		c-0.2,0.3-0.4,0.5-0.5,0.8C778.2,396.7,778.6,396.2,778.9,395.6z"/>
	<path d="M807.3,446.9c-2.5-0.3-4.9-1.2-6.9-2.7c-0.3-0.3-0.6-0.5-1-0.6c-0.9-0.1-1.8,0.4-2.2,1.2c-0.1,0.2-0.2,0.3-0.3,0.5
		c0.3-0.1,0.7-0.2,1-0.1c0.4,0.1,0.7,0.3,1,0.6c2,1.5,4.4,2.4,6.9,2.7c2.2,0.3,4.6-0.1,6-1.8c0.2-0.2,0.3-0.4,0.5-0.7
		C810.8,446.9,809,447.2,807.3,446.9z"/>
	<path d="M791.4,449.4c-1.8-0.1-3.5-0.4-5.1-1c1.5-1.6,2.6-3.4,3.3-5.5c0.3-1.3,0.4-2.7,0.3-4.1c-0.4-6.5-2.7-13.4-8-17.2
		c-1.2-0.8-2.6-1.8-2.4-3.3c0.1-0.6,0.4-1.1,0.8-1.5c1.6-2.6,1.7-5.8,0.3-8.5c-0.9-1.7-2.4-3.1-3.1-4.9c-0.8-2-0.7-4.3,0.3-6.2
		c-0.3,0.3-0.5,0.5-0.8,0.8c-0.2,0.3-0.4,0.6-0.7,0.8c-1,1.9-1.1,4.2-0.3,6.1c0.8,1.8,2.2,3.2,3.1,4.9c1.4,2.7,1.3,5.9-0.3,8.5
		c-0.4,0.5-0.6,1-0.7,1.5c-0.2,1.4,1.2,2.4,2.4,3.2c5.3,3.8,7.6,10.7,8,17.2c0.1,1.4,0.1,2.8-0.3,4.1c-0.7,2-1.8,3.9-3.3,5.5
		c1.6,0.6,3.4,0.9,5.1,1c1.8,0,3.5-0.8,4.5-2.2c0.1-0.1,0.1-0.2,0.2-0.3C793.7,449.1,792.6,449.4,791.4,449.4z"/>
</g>
<linearGradient id="SVGID_2_" gradientUnits="userSpaceOnUse" x1="102.6949" y1="-109.7" x2="102.6949" y2="32.403" gradientTransform="matrix(1 0 0 -1 -56.96 469.85)">
	<stop  offset="0" style="stop-color:#808080;stop-opacity:0.25"/>
	<stop  offset="0.54" style="stop-color:#808080;stop-opacity:0.12"/>
	<stop  offset="1" style="stop-color:#808080;stop-opacity:0.1"/>
</linearGradient>
<path class="st17" d="M71,568.6c-2.1-0.3-4.1-1-5.8-2.1l-0.2-0.1c0.1-0.2,0.2-0.4,0.3-0.7c-0.2-0.5-0.4-1-0.4-1.5
	c0-0.5-0.1-1-0.3-1.5v-2.5c-0.6-0.8-0.9-1.8-0.8-2.9c-0.1-2.1-0.2-12.2-0.2-12.2c-0.1-0.5-0.1-1.1-0.1-1.6c0.1-1.2,0.1-1.6,0.1-1.6
	c-0.2-0.7-0.3-1.4-0.2-2.1c0.1-0.7-0.1-1.4-0.5-1.9l1.1-5.6c0,0,0.6-19.3-1.2-25.2l0,0c0,0,0,0,0-0.1c0.2-3.8-2.1-10-0.8-14.4
	s1.4-5.3,1.4-5.3s-5.7-14.3-7.1-17.7c-0.8-2.2-1.8-4.3-3-6.4c-0.1-0.1-0.2-0.2-0.3-0.4l-0.2-0.2c0.3-0.5,0.5-1.1,0.6-1.7
	c0.1-1-0.1-2.3,0.7-3c0.3-0.2,0.6-0.4,0.9-0.6c1.2-0.8,1.8-2.2,1.7-3.6c-0.2-1.1-0.7-2.1-1.5-2.9c0.1-0.5,0.1-1,0.1-1.5
	c0-2.3-0.9-4.4-2.6-6l0,0v-0.5c0-1-0.3-2-0.9-2.8l0.2,0.2l-0.4-0.3c-0.2-0.2-0.4-0.3-0.6-0.5c-3.4-2.4-7.9-2.6-11.6-0.6
	c-0.9,0.5-1.7,1.2-2.3,2c-1.2,1.8-0.9,4.2-1.5,6.3s-2,3.6-3.2,5.4s-2.1,3.8-1.7,5.8c0.3,1.5,1.4,2.8,1.3,4.3c-0.1,1.6-1.4,3-3,3.2
	l0,0h-0.4c1.5,0.9,3.2,1.4,4.9,1.6c0,0.1-0.1,0.3-0.1,0.4c-1.4,5.3-2.6,12-2.6,12s0.8,6.8-0.9,12.1S28.5,508,28.5,508
	s4.9-2.5,5.2-0.9s0,2.1,0,2.1c0.7,0.4,1.4,0.7,2.2,1v0.7l-0.2,2.9c-0.1,0.6,0,1.2,0.3,1.8c0.4,0.8,0,3,0,3s-0.4,0.2,0,1.3
	c0.2,0.8,0.1,1.7-0.3,2.5c0,0-0.4,5.5-0.5,6.7c-0.4,1.5-0.9,3-1.5,4.5c0,0,1.3,1.6,0,1.8s-1.4,2.2-1.4,2.2s-1.5,1.3-1.5,1.7
	c-4.6,5.1-7.6,11.5-8.6,18.3c0,0-1.6,1.5-1.4,2.9c0.1,0.8-0.1,1.1-0.4,1.2c0.3,0,0.6,0.2,0.4,0.9c-0.2,1.2-0.8,3.7-0.8,3.7H20l0,0
	c-1.3,1.4-3.1,3.8-3.3,6v0.3l-0.7,1.5l6,2.7l0.5-0.8c0,0,2.7,3,5.7,3.7c0.5,0.1,1.1,0.2,1.6,0.2c1.7,0,3.4-0.4,4.9-1
	c0,0,2.2-2.7-3.5-3.2c0,0-3.3-3.8-3-5.5c0.1-0.7,0.2-1.4,0.2-2.1c0-0.2,0-0.3,0-0.4l0.4,0.1l0.1-1.2c0.2-0.2,0.3-0.5,0.2-0.7
	c0-0.5-0.5-0.6,0-0.9c0.5-0.3,0.4,0,0.4-0.7s-0.3-0.5,0.4-1.3s-0.1-2.1-0.1-2.1c0.9-0.6,1.4-1.6,1.5-2.7c-0.1-1.5,5.1-11.3,6.2-11.7
	s1.1-2.3,1.1-2.3s1.4,0.3,1.9,0c0.7-0.8,1.3-1.7,1.9-2.6c0,0,5.8-14.6,5.8-20.1l0.4-1.3c0,0,2.2,2.9,1.9,4.9
	c-0.3,2.1,1.7,3.5,1.7,3.5v6.3c0.2,1.1,0.3,2.2,0.4,3.3c-0.1,1,0.9,2.1,0.5,3c-0.2,0.8-0.2,1.6,0,2.4c0,0-0.1,2.1,0,2.7
	c0.1,0.6-0.3,7.4,1.7,10.3c0,0,0.8,2.1,0,3.5s0.8,2.8,0.8,2.8s-1,1.6,0,2.8c0.6,0.7,0.8,1.7,0.7,2.6c-0.4,1.5-0.7,3.5,0,4.8l0,0
	l0.2,2.1l5.8-0.4v-1.2c2.5,0.6,5.1,0.8,7.7,0.5c2-0.2,3.8-1.2,5.1-2.8C75.1,571.1,77.4,567,71,568.6z"/>
<path class="st7" d="M74,571.1c-1.2,1.6-3,2.6-4.9,2.7c-2.5,0.3-5,0.1-7.4-0.5v1.2L56,575l-0.2-2.1l0,0c-0.7-1.4-0.3-3.4,0.1-4.9
	c0.2-0.7,0.4-1.4,0.7-2.1c0,0,4.8-4.1,6.4-1c0.3,0.6,0.8,1.2,1.4,1.6c1.7,1.1,3.6,1.8,5.6,2.1C76.3,567.1,74,571.1,74,571.1z"/>
<path class="st8" d="M59,567.1c0,0,0,3.8,2.8,3.7c2.8-0.1,3.2-1.5,2.3-2.5c-0.6-0.7-1.1-1.5-1.5-2.3L59,567.1z"/>
<path class="st7" d="M35,578.6c-1.5,0.6-3.1,1-4.8,1c-0.5,0-1-0.1-1.5-0.2c-2.9-0.7-5.5-3.7-5.5-3.7l-0.5,0.8l-5.8-2.6l0.7-1.5v-0.3
	c0.3-2.1,2-4.5,3.2-5.9c0.7-0.8,1.2-1.3,1.2-1.3l7,1c0,0,0,0.9,0,2c0,0.7-0.1,1.4-0.2,2.1c-0.3,1.6,2.9,5.4,2.9,5.4
	C37.2,575.8,35,578.6,35,578.6z"/>
<path class="st10" d="M21.1,561.6c-0.1,0-0.2,0-0.4,0C20.9,561.5,21,561.5,21.1,561.6z"/>
<path class="st8" d="M29,565.9c0,0,0,0.9,0,2l-8.2-1.3c0,0,0-0.2,0.1-0.4c0.6-0.8,1.2-1.3,1.2-1.3L29,565.9z"/>
<path class="st8" d="M64.5,566.5c-1.2,2.9-8.6,2.2-8.6,2.2c0-0.2,0.1-0.5,0.1-0.7c0.2-0.7,0.4-1.4,0.7-2.1c0,0,4.8-4.1,6.4-1
	C63.4,565.5,63.9,566.1,64.5,566.5z"/>
<path class="st10" d="M64.6,565.7c-0.7,3.3-8.7,2.6-8.7,2.6c0.2-1-0.1-2-0.7-2.8c-1-1.2,0-2.8,0-2.8s-1.5-1.4-0.7-2.8
	c0.8-1.4,0-3.5,0-3.5c-1.9-2.9-1.5-9.7-1.6-10.3c-0.1-0.6,0-2.6,0-2.6c-0.2-0.8-0.2-1.6,0-2.4c0.4-0.9-0.6-1.9-0.5-2.9
	c0-1.1-0.1-2.2-0.3-3.3v-6.2c-1.1-0.8-1.7-2.2-1.6-3.5c0.3-2.1-1.8-4.9-1.8-4.9l-0.4,1.2c-0.1,5.5-5.7,20-5.7,20
	c-0.5,0.9-1.1,1.8-1.8,2.6c-0.4,0.3-1.8,0-1.8,0s-0.1,1.9-1.1,2.3c-1,0.4-6,10.1-5.9,11.7c-0.1,1.1-0.6,2.1-1.5,2.7
	c0,0,0.7,1.3,0.1,2s-0.4,0.5-0.4,1.3s0,0.4-0.4,0.7c-0.4,0.3,0,0.4,0,0.9c0,0.3-0.1,0.5-0.2,0.7l-0.1,1.2l-8.6-1.4
	c0,0,0.6-2.5,0.8-3.7c0.1-0.7-0.2-0.9-0.4-0.9c0.2-0.1,0.5-0.4,0.4-1.1c-0.2-1.4,1.3-2.9,1.3-2.9c0.9-6.7,3.7-13.1,8.1-18.3
	c0-0.4,1.5-1.7,1.5-1.7s0.2-2,1.4-2.2c1.3-0.2,0-1.8,0-1.8c0.6-1.4,1.1-2.9,1.5-4.5c0.1-1.2,0.5-6.7,0.5-6.7
	c0.3-0.8,0.4-1.7,0.3-2.5c-0.3-1,0-1.3,0-1.3s0.4-2.2,0-3c-0.2-0.6-0.3-1.2-0.3-1.8l0.2-2.9l0.3-4.3c0,0,22.8-3.9,25.3-0.7
	c0.3,0.4,0.5,0.8,0.6,1.3c1.8,5.8,1.2,25,1.2,25l-1.1,5.6c0.4,0.5,0.6,1.2,0.5,1.9c-0.1,0.7,0,1.4,0.2,2.1c0,0,0,0.4-0.1,1.6
	c-0.1,0.5,0,1.1,0.1,1.6c0,0,0.1,10.1,0.1,12.2c0,1,0.2,2,0.8,2.9v2.5c0.2,0.5,0.3,1,0.3,1.5C64.2,564.7,64.4,565.2,64.6,565.7z"/>
<path class="st8" d="M30.3,579.6c-0.5,0-1-0.1-1.5-0.2c-2.9-0.7-5.5-3.7-5.5-3.7l-0.5,0.8l-5.8-2.6l0.7-1.5v-0.3l6,3
	C23.6,575.1,28.4,577.4,30.3,579.6z"/>
<path class="st8" d="M69,573.8c-2.5,0.3-5,0.1-7.4-0.5v1.2L56,575l-0.2-2.1c1.8,0,4.7,0.1,5.9,0C64.2,572.9,66.7,573.2,69,573.8z"/>
<path class="st8" d="M24,559.7c0.3,0,0.6,0,0.9,0.1c0.3,0.2,0.6,0.4,0.8,0.6c0.2,0.1,0.4,0.2,0.6,0.4c0.2,0.2,0.3,0.5,0.5,0.7
	c0.4,0.4,1,0.3,1.6,0.5c0.1,0,0.1,0,0.1,0.1c0,0.1,0,0.1-0.1,0.1c-0.3,0.1-0.6,0.1-0.8,0c-0.3-0.1-0.5-0.3-0.7-0.5
	c-0.4-0.4-0.9-0.6-1.4-0.8c-0.7-0.3-1.9-0.3-2.3-1C23.4,559.7,23.7,559.6,24,559.7z"/>
<path class="st8" d="M23.4,561.2c0.2,0,0.3,0.1,0.4,0.2l0.8,0.4c-0.5,0-1.1-0.1-1.5-0.3c-0.2-0.1-0.3-0.1-0.5-0.2
	C22.8,561.1,23.1,561.1,23.4,561.2z"/>
<path class="st8" d="M24.4,562.5c0.2,0,0.3,0,0.5,0c0.3,0.1,0.6,0.3,0.8,0.5c0.6,0.4,1.2,0.7,1.9,0.7c-0.1,0.1-0.3,0.1-0.4,0.1h-1.6
	c-0.2,0-0.3,0-0.5,0c-0.2,0-0.4-0.1-0.7-0.2c-0.3-0.1-1.4-0.4-1.4-0.8S24.1,562.5,24.4,562.5z"/>
<path class="st8" d="M60.3,564.4c0.5,0,1,0,1.4,0c0.5,0,1-0.2,1.4-0.5c0.4-0.3,0.3-0.7-0.2-0.7c-0.5,0-1,0.1-1.4,0.3
	c-0.2,0.1-0.5,0.2-0.7,0.3C60.7,564,60.3,564.4,60.3,564.4z"/>
<path class="st8" d="M62,565.2c0,0.2-0.2,0.3-0.4,0.3c-0.4,0.2-0.8,0.3-1.3,0.3c-0.1,0-0.4,0-0.4-0.2c0-0.2,0.5-0.1,0.6-0.1
	C61.1,565.4,61.6,565.3,62,565.2z"/>
<path class="st8" d="M57.6,564.8c0.6-0.1,1.2,0.1,1.8,0.3l0,0l0,0c-0.1,0.2-0.4,0.3-0.6,0.3c-0.2,0-0.5-0.1-0.7-0.2
	c-0.4-0.1-0.8-0.2-1.2-0.2c-0.2,0-0.3,0-0.5,0c-0.5-0.1-0.3-0.3,0-0.3C56.8,564.8,57.2,564.8,57.6,564.8z"/>
<path class="st8" d="M37.5,536.1c-0.7-0.5-1.6-0.8-2.5-0.8C35.9,535.2,36.8,535.5,37.5,536.1z"/>
<path class="st8" d="M36.8,533.1c0.7,0,1.3,0.2,1.9,0.5l-0.6-0.2C37.6,533.3,37.2,533.2,36.8,533.1c-0.3,0.1-0.5,0.1-0.7,0.1
	s-0.6-0.1-0.8-0.1C35.7,533.1,36.3,533.1,36.8,533.1z"/>
<path class="st8" d="M39,534.5c0.2,0,0.5,0.1,0.5,0.3c-0.5-0.3-1.1-0.5-1.6-0.6c-0.3-0.1-1.3-0.5-1.5-0.2
	C37.2,534.3,38.1,534.3,39,534.5z"/>
<path class="st8" d="M41,528c1-0.3,1.8-0.9,2.5-1.6c0,0.7-0.4,1.3-0.9,1.6c-0.6,0.3-1.2,0.6-1.8,0.7c-0.7,0.1-1.3,0.3-1.9,0.6
	c-0.3,0.1-1.2,1-1.5,1s0.2-0.6,0.3-0.7C38.8,528.9,39.9,528.4,41,528z"/>
<path class="st8" d="M59,537.5c-0.3-0.1-4.1,0.6-3.9-0.1c0.2-0.5,1.4-0.3,1.7-0.3C57.6,537.2,58.3,537.3,59,537.5z"/>
<path class="st18" d="M54.9,449.9c0,0.6-0.1,1.2-0.2,1.8c-1,4.5-5.5,7.4-10,6.4c-4.5-1-7.4-5.5-6.4-10c1-4.5,5.5-7.4,10-6.4
	C52.2,442.5,54.9,445.9,54.9,449.9z"/>
<path class="st19" d="M50.9,453.3c0,0-2.7,7.9-1.2,9.5s-11.1,2.6-11.1,2.6s5.3-9.5,4.8-11.8S50.9,453.3,50.9,453.3z"/>
<path class="st8" d="M62.2,507.3c0,0.2,0,0.4,0,0.5c-0.2,3.7-6.8,11.3-8.4,10c-1.5-1.3-12-3.7-12-3.7s-1.5-2.4-3.2-2.4
	c-0.9-0.1-1.8-0.3-2.7-0.7l0.3-4.3c0,0,22.8-3.9,25.3-0.7C61.9,506.4,62.1,506.8,62.2,507.3z"/>
<path class="st20" d="M62.2,507.2c-0.1,1.9-1.8,4.7-3.7,6.9c-1.9,2.2-3.9,3.8-4.7,3.1c-0.6-0.4-1.2-0.7-1.8-0.9
	c-3.5-1.3-10.2-2.9-10.2-2.9s-1.5-2.4-3.2-2.4s-4.7-1.6-4.7-1.6s0.3-0.4,0-2s-5,0.9-5,0.9s-0.2-10.8,1.5-16.1s0.9-12,0.9-12
	s1.2-6.6,2.5-11.9c0.8-3.2,1.6-5.8,2.3-6.2c1.7-1.1,10.5,0,10.5,0c1.7,0,3.4,0.2,5.1,0.4c0.4,0.2,0.8,0.5,1.1,0.9l0.3,0.4
	c1.2,2,2.1,4.1,2.9,6.3c1.4,3.4,6.9,17.6,6.9,17.6s-0.2,1-1.4,5.3S62.3,503.4,62.2,507.2z"/>
<path class="st18" d="M55.9,511.5l2.6,2.6c0,0,2.4,8.3-0.7,7.6s-5.8-5.3-5.8-5.3L55.9,511.5z"/>
<path class="st8" d="M62.5,488.3c-6.2-0.1-7.8-8.8-7.8-8.8s-0.4-8.7-1.3-10.3c-0.5-1.6-0.7-3.2-0.7-4.9c1.2,2,2.1,4.1,2.9,6.3
	C57,474,62.5,488.3,62.5,488.3z"/>
<path class="st20" d="M62.8,487.6c-6.2-0.1-7.8-8.8-7.8-8.8s-0.4-8.7-1.3-10.3c-0.5-1.6-0.7-3.2-0.7-4.9c1.2,2,2.1,4.1,2.9,6.3
	C57.3,473.4,62.8,487.6,62.8,487.6z"/>
<path class="st8" d="M51.6,466.1c0,0-1.8-5-4.8,0c-1.9,3.5-2.9,7.3-3.1,11.3l-0.5,13.8c0.5,0.9,0.8,1.9,0.9,2.9c0,1,1.8,4,1.8,4
	s0.4,5.8,2.1,6.8l1.6,4.8c0,0,0.1,3.2,1.2,4.4c0.6,0.9,0.8,2.1,0.5,3.2l6.5-2.3c0,0-0.7,0.3,0-1.7c0.7-2-0.4-4.5-0.4-4.5
	s-4.2-9.1-4.7-10.4s-1.2-2.9-1-4.4s0.1-17.9,0.4-20.4S51.6,466.1,51.6,466.1z"/>
<path class="st7" d="M52.3,465.4c0,0-1.8-5-4.8,0c-1.9,3.5-2.9,7.3-3.1,11.3l-0.5,13.8c0.5,0.9,0.8,1.9,0.9,2.9c0,1,1.8,4,1.8,4
	s0.4,5.8,2.1,6.7l1.6,4.8c0,0,0.1,3.2,1.2,4.4c0.6,0.9,0.8,2.1,0.5,3.2l6.5-2.3c0,0-0.7,0.3,0-1.7c0.7-2-0.5-4.6-0.5-4.6
	s-4.2-9.1-4.7-10.4s-1.2-2.9-1-4.4s0.1-17.9,0.4-20.4S52.3,465.4,52.3,465.4z"/>
<path class="st8" d="M52.4,508.5c0.3,0,0.5,0.1,0.8,0.2c0.2,0.1,0.4,0.3,0.6,0.4c0.2,0.1,0.5,0.2,0.8,0.2c-0.3,0-0.6,0-0.9,0
	c-0.2,0-0.4,0-0.5-0.1c-0.2-0.1-0.3-0.2-0.5-0.3c-0.2-0.1-0.4-0.2-0.6-0.3c-0.2-0.1-0.3-0.1-0.4-0.2
	C51.9,508.4,52.2,508.4,52.4,508.5z"/>
<path class="st8" d="M54.9,510.5c0.3,0,0.6-0.1,0.8-0.1c0.4,0,0.8,0,1.2,0.1c-0.6,0.3-1.3,0.4-1.9,0.3c-0.2-0.1-0.4-0.1-0.6,0
	c-0.2,0.1-0.8,0.8-0.8,0.2S54.5,510.5,54.9,510.5z"/>
<path class="st8" d="M51.5,441.1l-1.1-0.8c0.1,0,0.2,0.1,0.3,0.2c0.2,0.1,0.4,0.3,0.6,0.5l0.3,0.3L51.5,441.1z"/>
<path class="st8" d="M52.7,463.3c-0.2,0.4-0.5,0.8-0.9,1.1c-0.2,0.2-0.5,0.3-0.8,0.3c-0.4,0-0.8,0-1.2-0.1c-0.5-0.1-1-0.3-1.4-0.5
	c-0.9-0.4-1.9-0.7-2.8-1c-1.5-0.4-3-0.1-4.2,0.9c-0.9,0.9-1.2,2.4-2.1,3.3c-1.2,1.3-3.3,1.2-5,0.9l-0.4-0.1c0.8-3.2,1.6-5.8,2.3-6.2
	c1.7-1.1,10.5,0,10.5,0c1.7,0,3.4,0.2,5.1,0.4C52.1,462.6,52.4,462.9,52.7,463.3z"/>
<path class="st8" d="M38.2,449.9c0-4.6,3.7-8.4,8.3-8.4c2.2,0,4.3,0.8,5.9,2.4l0,0c0,1.5-0.3,3,0.1,4.3c0.5,1.3,1.3,2.4,2.2,3.4
	c-1,4.5-5.5,7.3-10,6.3C40.9,457.1,38.2,453.7,38.2,449.9z"/>
<path class="st10" d="M51.7,440.8c-3.3-3-8.2-3.6-12.1-1.4c-0.9,0.5-1.6,1.2-2.2,2c-1.2,1.8-0.9,4.2-1.5,6.3s-1.9,3.6-3.1,5.3
	s-2.1,3.8-1.6,5.8c0.3,1.5,1.3,2.8,1.3,4.3c-0.1,1.7-1.5,3.1-3.2,3.2c1.5,0.9,3.2,1.5,4.9,1.6c1.8,0.3,3.8,0.3,5-0.9
	c0.9-0.9,1.1-2.4,2.1-3.3c1.2-1,2.8-1.3,4.2-0.9c1.5,0.3,2.8,1,4.3,1.4c0.4,0.1,0.8,0.2,1.2,0.1c1.3-0.2,2-1.6,2.1-2.8
	c0.1-1-0.1-2.3,0.7-3c0.3-0.2,0.6-0.4,0.9-0.6c1.2-0.8,1.8-2.2,1.6-3.6c-0.3-2.5-3-4-3.7-6.4c-0.4-1.4-0.1-2.9-0.1-4.3
	s-0.6-3.1-1.9-3.6"/>
<path class="st8" d="M56.1,454.2c-0.3-2.5-3-4-3.7-6.4c-0.4-1.4-0.1-2.9-0.1-4.3c0-1-0.3-2-0.9-2.8l0.2,0.2
	c-0.1-0.1-0.2-0.2-0.3-0.3c-0.2-0.2-0.4-0.3-0.6-0.5l-0.4-0.3l0.2,0.2l-0.2-0.2c0.6,0.8,0.9,1.8,0.9,2.8c0,1.5-0.3,3,0.1,4.3
	c0.7,2.4,3.4,4,3.7,6.5c0.2,1.4-0.4,2.8-1.6,3.6c-0.3,0.2-0.6,0.4-0.9,0.6c-0.7,0.7-0.6,2-0.7,3c-0.1,1.3-0.8,2.7-2.1,2.8
	c-0.4,0-0.8,0-1.2-0.1c-1.4-0.4-2.8-1.1-4.3-1.4c-1.5-0.4-3.1-0.1-4.2,0.9c-0.9,0.9-1.2,2.4-2.1,3.3c-1.2,1.3-3.3,1.2-5,0.9
	c-1.1-0.1-2.3-0.4-3.4-0.8c-0.1,0-0.3,0-0.4,0c1.5,0.9,3.2,1.5,4.9,1.6c1.8,0.3,3.8,0.3,5-0.9c0.9-0.9,1.2-2.4,2.1-3.3
	c1.2-1,2.8-1.3,4.2-0.9c1.5,0.3,2.8,1,4.3,1.4c0.4,0.1,0.8,0.2,1.2,0.1c1.3-0.2,2-1.6,2.1-2.8c0.1-1-0.1-2.3,0.7-3
	c0.3-0.2,0.6-0.4,0.9-0.6C55.7,457,56.3,455.6,56.1,454.2z"/>
</svg>
