<?xml version="1.0" encoding="utf-8"?>
<!-- Generator: Adobe Illustrator 23.1.0, SVG Export Plug-In . SVG Version: 6.00 Build 0)  -->
<svg version="1.1" id="b2f46e39-848f-4802-b668-f0d450449910"
	 xmlns="http://www.w3.org/2000/svg" xmlns:xlink="http://www.w3.org/1999/xlink" x="0px" y="0px" viewBox="0 0 995.7 657"
	 style="enable-background:new 0 0 995.7 657;" xml:space="preserve">
<style type="text/css">
	.st0{fill:#28192B;}
	.st1{fill:#E6E6E6;}
	.st2{fill:#2F2E41;}
	.st3{fill:#917F86;}
	.st4{fill:#FFFFFF;}
	.st5{fill:#663399;}
	.st6{fill:#FFB8B8;}
	.st7{fill:#A5AF86;}
	.st8{opacity:0.2;enable-background:new    ;}
</style>
<path class="st0" d="M891.9,449.6c-0.9,34-6.6,67.6-16.9,100c-0.2,0.8-0.5,1.5-0.7,2.2h-63c0.1-0.7,0.1-1.4,0.2-2.2
	c4.2-48.3,28.4-342.5-0.5-392.8C813.4,160.9,896.8,296.1,891.9,449.6z"/>
<path class="st0" d="M887.1,549.6c-0.5,0.8-1.1,1.5-1.6,2.2h-47.3c0.4-0.6,0.8-1.4,1.3-2.2c7.8-14.1,30.9-56.3,52.4-100
	c23.1-47,44.2-95.7,42.5-113.4C934.9,340.2,950.8,461.6,887.1,549.6z"/>
<path class="st0" d="M176.4,555.9H87.6c-0.1-0.3-0.2-0.7-0.3-1c-0.2-0.7-0.4-1.3-0.6-2c0,0,0-0.1-0.1-0.2c-0.7-2-1.3-4.1-1.9-6.2
	c-3.3-10.8-6.2-21.5-8.7-32.3c14.4,9.1,30.8,14.3,47.8,15.1c-0.8-1.5-1.6-3-2.4-4.5L68,472c-1.3-9.1-2.4-18.1-3.2-27.1l82,82
	c1.2-0.3,2.4-0.6,3.6-0.9c7.9-2.1,15.6-5.3,22.6-9.5c0.9,10.8,1.6,20,2.2,27.3c0.3,3.4,0.5,6.4,0.8,8.9c0,0,0,0.1,0,0.2
	c0.1,0.7,0.1,1.4,0.2,2C176.3,555.2,176.3,555.5,176.4,555.9z"/>
<path class="st0" d="M171.6,498.1c-1.5,1.1-3,2.2-4.5,3.1c-4.8,3.1-9.9,5.5-15.3,7.4l-81.5-81.5l-7.2-7.2c-0.1-2.6-0.2-5.3-0.3-7.9
	c-0.1-4.3-0.2-8.6-0.3-12.9c12.4-20.5,33.7-33.9,57.5-36.1c2.2-0.2,4.5-0.3,6.8-0.3c7.8,0,15.5,1.2,22.9,3.6
	c4.7,1.5,9.2,3.5,13.5,5.9c1.3,23,2.7,45.1,4,65.6h-7.1v16.7h8.3c0.7,9.4,1.3,18.3,1.9,26.7C170.8,487,171.2,492.7,171.6,498.1z"/>
<path class="st0" d="M161.9,346.7c0.1,2.1,0.2,4.3,0.3,6.4c-34-14.2-73.1-6.6-99.3,19.3c0.4-11.3,1.1-22.5,2.1-33.5
	C81.2,156,172.2,7.3,176.7,0c-23.1,40.4-22.1,191-15.8,326.1C161.2,333,161.6,339.9,161.9,346.7z"/>
<path class="st1" d="M70.3,427.1l-7.2-7.2l-7.2-7.2c1-2.7,2.1-5.3,3.4-7.8c1.2,2.4,2.3,4.7,3.5,7.1C65.3,417,67.8,422,70.3,427.1z"
	/>
<path class="st0" d="M138.3,555.9H71.8c-0.3-0.3-0.5-0.7-0.8-1c-0.5-0.7-1-1.3-1.4-2c0,0-0.1-0.1-0.1-0.2
	c-5.7-7.9-10.9-15.9-15.8-24.1l0,0c-21-35.6-34.1-73.8-42-110.1c-18.9-86-9.3-161.2-8.6-166c-1.8,18.5,14.1,61,35.7,108.7
	c3.8,8.5,7.8,17.1,12,25.8c-6.2,9.3-10.7,19.7-13.2,30.7l57.1,57.1c9.9,19,19.1,36.2,26.6,50L68,472l-32.9-32.6
	c0.2,23.8,9.8,46.6,26.7,63.4c4.3,4.3,9.1,8.1,14.2,11.5c14.4,9.1,30.8,14.3,47.8,15.1c5.5,10.1,9.9,18.1,12.8,23.3
	c0,0.1,0.1,0.1,0.1,0.2c0.2,0.4,0.4,0.8,0.6,1.1c0.2,0.3,0.3,0.6,0.5,0.9C138,555.2,138.2,555.5,138.3,555.9z"/>
<rect x="6.7" y="552.9" class="st2" width="984" height="2"/>
<path class="st3" d="M561.3,483.2H503v23.3h30.9c-5,15.8-16.7,26.7-38.4,26.7c-24.2,0-41.7-20-41.7-44.2s16.7-45,40.9-45
	c13.7,0.2,26.6,6.6,35,17.5l19.2-12.5c-12.5-17.4-32.7-27.7-54.2-27.5c-36.7,0-66.7,30-66.7,67.5c0,29.7,17.7,54.7,44.1,63.8
	c2.3,0.8,4.6,1.5,7,2c10.3,2.3,20.9,2.3,31.2,0c2.4-0.5,4.7-1.2,7-2c26.4-9.1,44.1-34.1,44.1-63.8
	C562.2,486.6,561.3,484.9,561.3,483.2z M969.1,469l-23.3,47.5L923,474.7l-3.1-5.7h-27.5l20,35.5l20,35.4l-6.8,12.9l-1.1,2
	l-22.1,41.8H929l21.8-41.8l1-2l43.8-83.8H969.1z M888.8,488.1c-2.4-4.8-5.8-9-9.9-12.5c-7.2-6-16.3-9.2-25.7-9.1
	c-6.7,0-18.3,1.7-26.7,13.3v-67.5h-23.4v140.1h22.5v-10.8c3.2,4.4,7.4,7.9,12.3,10.3c0.8,0.4,1.6,0.7,2.4,1c3.1,1.1,6.4,1.8,9.7,2
	c0.9,0.1,1.7,0.1,2.4,0.1c0.8,0,1.7,0,2.5-0.1c3.8-0.2,7.5-0.9,11.1-2c0.9-0.3,1.8-0.6,2.7-1c2.4-1,4.6-2.1,6.8-3.5
	c11.7-7.7,18.6-21.4,18.6-37.6C894.1,502.9,892.3,495.1,888.8,488.1z M848,534.1c-0.2,0-0.5,0-0.7,0c-14.2,0-23.3-10-23.3-23.3
	s9.2-23.3,23.3-23.3c9.1,0,16.1,4.1,20,10.5c2.3,3.9,3.4,8.3,3.4,12.8C870.7,523.8,861,533.7,848,534.1L848,534.1z M787.3,510.7
	c-4.2-6.7-14.2-9.2-20.8-11.7l-5.8-1.7c-6.7-2.5-7.5-5-7.5-7.5c0-4.2,3.3-6.7,9.2-6.7c2.5,0,7.5,0.8,13.3,5.8l11.7-13.3
	c-7.6-6-17-9.3-26.7-9.2c-6.7,0-15,0.8-21.7,5.8c-5.2,5-8.2,11.9-8.3,19.2c-0.1,6,2.3,11.7,6.7,15.8c5,5,11.7,7.5,17.5,10l5,1.7
	c3.3,0.8,7.5,3.3,7.5,8.3c0,5.8-5,9.2-11.7,9.2s-13.3-5-18.3-10l-12.5,14.2c4,4,9.7,9.3,18.5,12.1c3.7,1.2,7.4,1.8,11.3,2
	c0.9,0,1.8,0.1,2.7,0.1c0.8,0,1.6,0,2.3-0.1c3.6-0.2,7.1-0.8,10.5-2c4.5-1.5,8.6-4,12.2-7.1c6-5.2,9.4-12.9,9.2-20.8
	C791.6,519.9,790.1,514.9,787.3,510.7z M704.7,469v-28.4h-23.3V469h-9.2v20h9.2v63.4h23.3v-63.4h15.8v-20H704.7z M634.7,469v10.8
	c-7.5-12.5-20-13.3-26.7-13.3c-24.2,0-40.9,19.2-40.9,44.2c0,19.6,10.9,36.4,28.8,42.1c3.6,1.1,7.4,1.8,11.1,2
	c0.8,0,1.7,0.1,2.6,0.1c0.9,0,1.8,0,2.9-0.1c3.3-0.1,6.6-0.8,9.7-2c4.5-1.8,9.2-5.1,13.3-11.3v10.8h23.3V469H634.7z M615.5,534.1
	c-14.2,0-23.3-10-23.3-23.3s10-23.3,23.3-23.3c14.2,0,23.3,10,23.3,23.3S628.9,534.1,615.5,534.1z"/>
<circle class="st4" cx="126.4" cy="438.3" r="104.3"/>
<path class="st5" d="M168.4,454.4c0.7,9.4,1.3,18.3,1.9,26.7c0.4,5.9,0.9,11.6,1.3,17c3-2.2,5.8-4.6,8.4-7.3
	c10-10,16.9-22.6,20.2-36.4L168.4,454.4z M62.8,412c-0.1-4.3-0.2-8.6-0.3-12.9c-1.1,1.9-2.2,3.8-3.2,5.8c-1.3,2.5-2.4,5.2-3.4,7.8
	l7.2,7.2C63,417.3,62.9,414.6,62.8,412z M168.4,454.4c0.7,9.4,1.3,18.3,1.9,26.7c0.4,5.9,0.9,11.6,1.3,17c3-2.2,5.8-4.6,8.4-7.3
	c10-10,16.9-22.6,20.2-36.4L168.4,454.4z M168.4,454.4c0.7,9.4,1.3,18.3,1.9,26.7c0.4,5.9,0.9,11.6,1.3,17c3-2.2,5.8-4.6,8.4-7.3
	c10-10,16.9-22.6,20.2-36.4L168.4,454.4z M62.5,399.1c-1.1,1.9-2.2,3.8-3.2,5.8c-1.3,2.5-2.4,5.2-3.4,7.8l7.2,7.2
	c-0.1-2.6-0.2-5.3-0.3-7.9C62.7,407.7,62.6,403.4,62.5,399.1L62.5,399.1z M235,394c-13.3-32.5-40.5-57.4-74.1-67.9
	c-32.3-9.9-67.3-5.3-95.9,12.7c-9.8,6.2-18.6,13.7-26.2,22.4C-3.5,409.6,1.5,483.1,49.8,525.3c1.3,1.1,2.6,2.2,3.9,3.2l0,0
	c9.3,7.5,19.8,13.6,30.9,18c13.4,5.2,27.7,7.9,42.1,7.9c3.5,0,7-0.2,10.5-0.5c2.9-0.3,5.8-0.6,8.7-1.1c10.1-1.7,20-4.7,29.3-9
	c28.4-13.1,50.4-36.9,61.2-66.2c2.8-7.5,4.7-15.3,5.9-23.2C245.3,433.9,242.8,413.1,235,394L235,394z M75.9,514.2
	c-5.1-3.3-9.9-7.2-14.2-11.5c-16.9-16.8-26.5-39.6-26.7-63.4L68,472l53.3,52.8l4.6,4.6c-0.7,0-1.5-0.1-2.2-0.1
	C106.8,528.5,90.3,523.3,75.9,514.2z M217,454.4c-3.4,18.2-12.3,34.9-25.5,47.9c-3.9,3.9-8.2,7.5-12.7,10.6
	c-1.9,1.3-3.8,2.5-5.7,3.6c-7.1,4.2-14.7,7.4-22.6,9.5c-1.2,0.3-2.4,0.6-3.6,0.9L37.6,417.7c2.5-10.9,6.9-21.3,13.2-30.7
	c3.5-5.3,7.6-10.2,12.1-14.7c17-16.8,40-26.3,63.9-26.3c19.1-0.1,37.8,5.9,53.4,17c8,5.7,15,12.6,20.8,20.5l-12.5,10.8
	c-6.7-9.1-15.3-16.7-25.2-22.2c-4.3-2.4-8.9-4.4-13.5-5.9c-7.4-2.4-15.1-3.6-22.9-3.6c-2.3,0-4.5,0.1-6.8,0.3
	c-23.8,2.2-45.1,15.6-57.5,36.1c-1.1,1.9-2.2,3.8-3.2,5.8c-1.3,2.5-2.4,5.2-3.4,7.8l7.2,7.2l7.2,7.2l81.5,81.5
	c5.4-1.9,10.5-4.3,15.3-7.4c1.6-1,3.1-2,4.5-3.1c3-2.2,5.8-4.6,8.4-7.3c10-10,16.9-22.6,20.2-36.4h-40v-16.7h58.4
	C218.5,443.3,218,448.9,217,454.4z M168.4,454.4c0.7,9.4,1.3,18.3,1.9,26.7c0.4,5.9,0.9,11.6,1.3,17c3-2.2,5.8-4.6,8.4-7.3
	c10-10,16.9-22.6,20.2-36.4L168.4,454.4z M168.4,454.4c0.7,9.4,1.3,18.3,1.9,26.7c0.4,5.9,0.9,11.6,1.3,17c3-2.2,5.8-4.6,8.4-7.3
	c10-10,16.9-22.6,20.2-36.4L168.4,454.4z"/>
<polygon class="st6" points="332.4,648.7 366,643.4 352.2,628.9 332.4,628.9 "/>
<path class="st2" d="M338.8,656.7l33.2-10.9c3.4-1.1,5.2-4.8,4.1-8.2c-0.1-0.3-0.2-0.6-0.4-0.9l0,0c-1.2-2.3-3.6-3.7-6.2-3.6
	l-7.5,0.5l-3-1.7c-0.8-0.5-1.9-0.2-2.3,0.7c-0.3,0.5-0.3,1-0.1,1.5l2.7,6.6l-27.7-2l-1.4,10.9c-0.4,3.6,2.1,6.8,5.6,7.2
	C337,657.1,337.9,657,338.8,656.7z"/>
<path class="st6" d="M240.9,632.2l34.9,9.2c-6.4-13.3-10.4-25.1-7.9-32.9l-16.5-2L240.9,632.2z"/>
<path class="st2" d="M243.1,643.9l36.1,2.3c3.7,0.2,6.9-2.6,7.1-6.2c0-0.3,0-0.7,0-1l0,0c-0.2-2.7-2-5-4.6-5.8l-7.4-2.4l-2.2-2.7
	c-0.6-0.8-1.7-0.9-2.5-0.3c-0.4,0.3-0.7,0.9-0.7,1.4l0.1,7.4L243.2,624l-5.5,10c-1.8,3.2-0.6,7.3,2.6,9.1
	C241.1,643.5,242.1,643.8,243.1,643.9z"/>
<circle class="st6" cx="357.4" cy="202" r="24.4"/>
<path class="st6" d="M318.7,233.7l28.2,21.3c4.6-17.4,10-29.8,17.2-33l-28.2-16.5L318.7,233.7z"/>
<polygon class="st2" points="245.9,606.2 269.9,616.5 325.6,485.2 330.1,631.3 354.1,629.9 380.9,401.1 378.9,388 287.8,408.3 
	286.4,481.8 "/>
<path class="st2" d="M385.1,194.9c0,0-15.8-14.4-20.6-8.2s-6.2,7.6-8.9,7.6s-9.6,7.6-9.6,7.6s-3.4-6.9-7.6-1.4s-4.8,13.7-4.8,13.7
	s-15.1-35,11.7-41.9S391.2,186.6,385.1,194.9z"/>
<path class="st7" d="M281.6,419.3c13.1-5.7,13.4-1.2,32.3,6.2c23.8,2.9,38.9,3.3,46.4-6.5c3.1-19.6,5.6-38.3,7.2-56.2
	c0.3-3.7,0.6-7.3,0.8-10.9c2.7-42-0.6-78.5-15.9-107.8l-27.5-20.6l-9,6.5c-21.4,15.5-18.1,39.4-20.9,65.7L281.6,419.3z"/>
<polygon class="st6" points="364.8,413.1 379.2,400.7 377.8,388.3 364.8,388.3 "/>
<path class="st8" d="M326.7,289c0,0-40.6,52.9-11.6,77s45.2,39.2,45.2,39.2S358.6,301.4,326.7,289z"/>
<path class="st8" d="M342.5,341.9l25,20.8c0.3-3.7,0.6-7.3,0.8-10.9L351.4,276L342.5,341.9z"/>
<path class="st7" d="M360.7,404.8l19.9-15.8l-26.1-66l-0.6-68.8c-0.1-6.6-4.2-12.4-10.4-14.6l0,0c-8.1-2.9-17.1,1.4-20,9.5
	c-0.6,1.6-0.9,3.3-0.9,5l-1.1,79.8L360.7,404.8z"/>
</svg>
