<?xml version="1.0" encoding="utf-8"?>
<!-- Generator: Adobe Illustrator 23.1.0, SVG Export Plug-In . SVG Version: 6.00 Build 0)  -->
<svg version="1.1" id="Layer_1" xmlns="http://www.w3.org/2000/svg" xmlns:xlink="http://www.w3.org/1999/xlink" x="0px" y="0px"
	 viewBox="0 0 472.1 191.3" style="enable-background:new 0 0 472.1 191.3;" xml:space="preserve">
<style type="text/css">
	.st0{enable-background:new    ;}
</style>
<g class="st0">
	<path d="M0,191.3V43C0,28.5,10.1,17.3,30.3,9.6c10.9-4.2,23.2-6.3,37-6.3c13.7,0,26,2.1,37,6.3c20.2,7.8,30.3,18.9,30.3,33.4v133.7
		l-30.8,14.6h-1.6V48.6c0-5.4-3.4-9.5-10.1-12.2c-6.8-2.7-15-4.1-24.7-4.1c-9.7,0-18,1.4-24.7,4.1c-6.8,2.7-10.1,6.8-10.1,12.2
		v128.1L1.6,191.3H0z"/>
</g>
<g class="st0">
	<path d="M196.2,191.3h-1.6L166.7,178L217,95.6l-50.3-82.2L195,0h1.6L236,64.4L275.3,0h1.6l28.2,13.4l-50.2,82l50.4,82.6l-28.2,13.3
		h-1.6l-39.6-64.8L196.2,191.3z"/>
</g>
<g class="st0">
	<path d="M470.5,191.3l-30.8-14.6V48.6c0-5.4-3.4-9.5-10.1-12.2c-6.8-2.7-15-4.1-24.7-4.1s-18,1.4-24.7,4.1
		c-6.8,2.7-10.1,6.8-10.1,12.2v142.7h-1.6l-30.8-14.6V43c0-14.5,10.1-25.6,30.3-33.4c10.9-4.2,23.2-6.3,37-6.3c13.7,0,26,2.1,37,6.3
		c20.2,7.8,30.3,18.9,30.3,33.4v148.3H470.5z"/>
</g>
</svg>
