<?xml version="1.0" encoding="utf-8"?>
<!-- Generator: Adobe Illustrator 23.1.0, SVG Export Plug-In . SVG Version: 6.00 Build 0)  -->
<svg version="1.1" id="Layer_1" xmlns="http://www.w3.org/2000/svg" xmlns:xlink="http://www.w3.org/1999/xlink" x="0px" y="0px"
	 viewBox="0 0 706.7 748.8" style="enable-background:new 0 0 706.7 748.8;" xml:space="preserve">
<style type="text/css">
	.st0{fill:#FFFFFF;}
	.st1{fill:#006ABA;}
	.st2{enable-background:new    ;}
	.st3{fill:#222222;}
</style>
<g>
	<polygon id="Inner_Fill" class="st0" points="323.9,357 29.5,527 29.5,51 588.9,374 588.9,204 471.1,272 382.8,221 677.3,51 
		677.3,527 117.8,204 117.8,374 235.6,306 	"/>
	<g id="Stripe_1_">
		<polygon class="st1" points="117.8,408 117.8,442 294.5,340 265,323 		"/>
		<polygon class="st1" points="588.9,136 412.3,238 441.7,255 588.9,170 		"/>
	</g>
	<path id="Outline" d="M147.2,323v-68l58.9,34L147.2,323z M29.5,527V51L589,374V204l-117.8,68l-88.3-51L677.3,51v476L117.8,204v170
		l117.8-68l88.3,51L29.5,527z M353.4,374l353.3,204V0L353.4,204L0,0v578L353.4,374z M559.5,255v68l-58.9-34L559.5,255z"/>
</g>
<g>
	<g class="st2">
		<path class="st3" d="M117.8,748.8V600.5c0-14.5,10.1-25.6,30.3-33.4c10.9-4.2,23.2-6.3,37-6.3c13.7,0,26,2.1,37,6.3
			c20.2,7.8,30.3,18.9,30.3,33.4v133.7l-30.8,14.6H220V606.2c0-5.4-3.4-9.5-10.1-12.2c-6.8-2.7-15-4.1-24.7-4.1
			c-9.7,0-18,1.4-24.7,4.1c-6.8,2.7-10.1,6.8-10.1,12.2v128.1l-30.8,14.6H117.8z"/>
	</g>
	<g class="st2">
		<path class="st3" d="M314,748.8h-1.6l-27.9-13.3l50.3-82.4L284.5,571l28.3-13.5h1.6l39.3,64.4l39.3-64.4h1.6l28.2,13.4l-50.2,82
			l50.4,82.6l-28.2,13.3h-1.6l-39.6-64.8L314,748.8z"/>
	</g>
	<g class="st2">
		<path class="st3" d="M588.3,748.8l-30.8-14.6V606.2c0-5.4-3.4-9.5-10.1-12.2c-6.8-2.7-15-4.1-24.7-4.1s-18,1.4-24.7,4.1
			c-6.8,2.7-10.1,6.8-10.1,12.2v142.7h-1.6l-30.8-14.6V600.5c0-14.5,10.1-25.6,30.3-33.4c10.9-4.2,23.2-6.3,37-6.3
			c13.7,0,26,2.1,37,6.3c20.2,7.8,30.3,18.9,30.3,33.4v148.3H588.3z"/>
	</g>
</g>
</svg>
